<svg width="389" height="517" viewBox="0 0 389 517" fill="none" xmlns="http://www.w3.org/2000/svg">
<path d="M387.954 228.003C386.67 300.768 337.766 332.394 336.962 301.672C335.964 262.812 319.207 162.029 253.435 192.935C174.776 229.894 245.685 455.015 222.914 455.015C131.812 455.015 57.8735 353.318 57.8735 228.003C57.8735 102.697 131.812 1 222.914 1C314.016 1 390.134 104.293 387.954 228.003V228.003Z" fill="url(#paint0_linear_805_136)" stroke="black" stroke-width="0.8" stroke-linecap="round" stroke-linejoin="round"/>
<path d="M343.382 72.2791C364.509 110.465 374.994 158.347 375.936 208.619C376.814 255.062 364.149 298.922 340.666 311.35C351.632 314.855 386.67 300.758 387.945 227.994C389.007 168.201 371.76 113.177 343.382 72.2791ZM263.846 167.767C257.093 167.896 249.638 169.704 241.417 173.561C162.758 210.52 233.676 435.641 210.905 435.641C163.987 435.641 121.623 408.664 91.5635 365.376C121.724 419.828 169.345 455.015 222.914 455.015C245.685 455.015 174.767 229.894 253.426 192.935C277.813 181.486 295.467 188.129 308.076 203.001C298.672 182.741 284.538 167.38 263.846 167.767V167.767Z" fill="black" fill-opacity="0.31373"/>
<path d="M302.426 358.424C302.426 398.38 286.547 436.7 258.283 464.953C230.019 493.207 191.684 509.079 151.713 509.079C111.741 509.079 73.4069 493.207 45.1428 464.953C16.8786 436.7 1 398.38 1 358.424C1 318.468 16.8786 280.148 45.1428 251.895C73.4069 223.642 111.741 207.769 151.713 207.769C191.684 207.769 230.019 223.642 258.283 251.895C286.547 280.148 302.426 318.468 302.426 358.424V358.424Z" fill="url(#paint1_linear_805_136)" stroke="black" stroke-width="0.799968" stroke-linecap="round" stroke-linejoin="round"/>
<path d="M151.72 207.789C135.683 207.789 120.247 210.317 105.744 214.958C118.787 211.913 132.542 210.271 146.759 210.271C185.76 210.271 221.325 222.523 248.087 242.626C221.963 220.871 188.356 207.789 151.72 207.789ZM294.451 309.938C296.428 317.983 297.481 326.286 297.481 334.811C297.481 403.562 229.953 459.351 146.759 459.351C77.1901 459.351 18.6048 420.344 1.2749 367.36C5.89374 446.38 71.5181 509.107 151.72 509.107C234.914 509.107 302.441 441.61 302.441 358.448C302.441 341.481 299.633 325.161 294.451 309.938Z" fill="black" fill-opacity="0.31373"/>
<path d="M151.72 207.789C126.02 207.789 101.808 214.22 80.6265 225.577C90.6586 260.607 119.97 292.999 154.592 292.999C188.291 292.999 217.011 262.314 227.773 228.363C205.446 215.29 179.451 207.789 151.72 207.789V207.789Z" fill="black" fill-opacity="0.31373"/>
<path fill-rule="evenodd" clip-rule="evenodd" d="M254.987 82.2986C236.687 82.2986 199.515 92.0227 193.012 117.237C192.91 117.431 192.716 118.132 192.504 119.211C180.735 112.024 166.897 107.845 152.107 107.845C136.662 107.845 122.307 112.403 110.215 120.171C109.965 118.593 109.66 117.486 109.54 117.237C103.037 92.0227 65.8646 82.3263 47.5555 82.317C44.6457 82.317 42.2346 82.5661 40.4702 83.0274C30.6506 84.3929 19.898 88.3139 20.6832 90.4543C27.8885 89.2272 31.5282 90.6296 31.4173 91.792C31.1956 93.9693 26.8539 94.5506 28.2488 102.402C30.8815 98.5915 34.5489 97.2814 37.431 96.6725C40.3871 115.207 53.3198 147.563 77.5225 149.242C79.601 149.389 81.5409 149.38 83.3699 149.343C77.6611 160.156 74.4186 172.472 74.4186 185.546C74.4186 228.418 109.217 278.1 152.107 278.1C194.989 278.1 229.833 228.418 229.833 185.546C229.833 172.482 226.581 160.193 220.873 149.389C222.194 149.38 223.588 149.343 225.029 149.242C249.149 147.572 262.082 115.401 265.093 96.8478C267.846 97.5213 271.135 98.9052 273.546 102.402C274.941 94.5506 270.599 93.9693 270.377 91.792C270.266 90.6296 273.906 89.2272 281.111 90.4543C281.86 88.4246 272.262 84.7988 262.895 83.2581C261.112 82.6307 258.377 82.2986 254.987 82.2986V82.2986Z" fill="url(#paint2_linear_805_136)" stroke="black" stroke-width="0.8" stroke-linejoin="round"/>
<path d="M136.011 338.429C136.011 345.985 133.007 353.233 127.662 358.576C122.316 363.92 115.066 366.922 107.506 366.922C99.9464 366.922 92.6962 363.92 87.3507 358.576C82.0051 353.233 79.002 345.985 79.002 338.429C79.002 330.872 82.0051 323.624 87.3507 318.281C92.6962 312.937 99.9464 309.935 107.506 309.935C115.066 309.935 122.316 312.937 127.662 318.281C133.007 323.624 136.011 330.872 136.011 338.429V338.429Z" fill="black" fill-opacity="0.31373"/>
<path d="M242.944 338.871C242.944 346.428 239.941 353.676 234.595 359.019C229.249 364.363 221.999 367.365 214.439 367.365C206.88 367.365 199.629 364.363 194.284 359.019C188.938 353.676 185.935 346.428 185.935 338.871C185.935 331.314 188.938 324.067 194.284 318.724C199.629 313.38 206.88 310.378 214.439 310.378C221.999 310.378 229.249 313.38 234.595 318.724C239.941 324.067 242.944 331.314 242.944 338.871V338.871Z" fill="black" fill-opacity="0.31373"/>
<path d="M224.753 423.241C187.035 423.241 156.413 453.853 156.413 491.55C156.413 499.346 157.724 506.819 160.135 513.793H289.333C291.745 506.819 293.056 499.346 293.056 491.55C293.056 453.853 262.47 423.241 224.753 423.241V423.241Z" fill="url(#paint3_linear_805_136)" stroke="black" stroke-width="0.8" stroke-linecap="round" stroke-linejoin="round"/>
<path d="M88.0719 423.241C50.3545 423.241 19.7686 453.853 19.7686 491.55C19.7686 499.346 21.0803 506.819 23.4913 513.793H152.689C155.1 506.819 156.412 499.346 156.412 491.55C156.412 453.853 125.789 423.241 88.0719 423.241Z" fill="url(#paint4_linear_805_136)" stroke="black" stroke-width="0.8" stroke-linecap="round" stroke-linejoin="round"/>
<path d="M149.397 179.32C149.399 182.653 148.743 185.954 147.468 189.035C146.193 192.115 144.324 194.913 141.966 197.271C139.609 199.629 136.81 201.499 133.729 202.775C130.648 204.051 127.346 204.708 124.012 204.708C120.677 204.708 117.375 204.051 114.295 202.775C111.214 201.499 108.415 199.629 106.057 197.271C103.7 194.913 101.83 192.115 100.555 189.035C99.2804 185.954 98.6249 182.653 98.6265 179.32C98.6249 175.987 99.2804 172.686 100.555 169.606C101.83 166.526 103.7 163.727 106.057 161.369C108.415 159.012 111.214 157.141 114.295 155.865C117.375 154.589 120.677 153.933 124.012 153.933C127.346 153.933 130.648 154.589 133.729 155.865C136.81 157.141 139.609 159.012 141.966 161.369C144.324 163.727 146.193 166.526 147.468 169.606C148.743 172.686 149.399 175.987 149.397 179.32V179.32Z" fill="white" stroke="black" stroke-width="0.800004" stroke-linecap="round" stroke-linejoin="round"/>
<path d="M205.618 179.32C205.62 182.653 204.964 185.954 203.689 189.035C202.414 192.115 200.545 194.913 198.187 197.271C195.83 199.629 193.031 201.499 189.95 202.775C186.87 204.051 183.568 204.708 180.233 204.708C176.898 204.708 173.596 204.051 170.516 202.775C167.435 201.499 164.636 199.629 162.279 197.271C159.921 194.913 158.052 192.115 156.777 189.035C155.502 185.954 154.846 182.653 154.848 179.32C154.846 175.987 155.502 172.686 156.777 169.606C158.052 166.526 159.921 163.727 162.279 161.369C164.636 159.012 167.435 157.141 170.516 155.865C173.596 154.589 176.898 153.933 180.233 153.933C183.568 153.933 186.87 154.589 189.95 155.865C193.031 157.141 195.83 159.012 198.187 161.369C200.545 163.727 202.414 166.526 203.689 169.606C204.964 172.686 205.62 175.987 205.618 179.32Z" fill="white" stroke="black" stroke-width="0.800004" stroke-linecap="round" stroke-linejoin="round"/>
<path d="M141.533 182.403C141.534 183.48 141.323 184.546 140.911 185.542C140.5 186.537 139.896 187.441 139.134 188.203C138.373 188.965 137.469 189.569 136.473 189.981C135.478 190.394 134.411 190.606 133.334 190.606C132.257 190.606 131.19 190.394 130.195 189.981C129.2 189.569 128.295 188.965 127.534 188.203C126.772 187.441 126.169 186.537 125.757 185.542C125.345 184.546 125.134 183.48 125.135 182.403C125.134 181.326 125.345 180.26 125.757 179.264C126.169 178.269 126.772 177.365 127.534 176.603C128.295 175.841 129.2 175.237 130.195 174.825C131.19 174.412 132.257 174.2 133.334 174.2C134.411 174.2 135.478 174.412 136.473 174.825C137.469 175.237 138.373 175.841 139.134 176.603C139.896 177.365 140.5 178.269 140.911 179.264C141.323 180.26 141.534 181.326 141.533 182.403V182.403Z" fill="black"/>
<path d="M179.038 182.403C179.039 183.48 178.827 184.546 178.416 185.542C178.004 186.537 177.4 187.441 176.639 188.203C175.877 188.965 174.973 189.569 173.978 189.981C172.983 190.394 171.916 190.606 170.838 190.606C169.761 190.606 168.694 190.394 167.699 189.981C166.704 189.569 165.8 188.965 165.038 188.203C164.277 187.441 163.673 186.537 163.261 185.542C162.85 184.546 162.638 183.48 162.639 182.403C162.638 181.326 162.85 180.26 163.261 179.264C163.673 178.269 164.277 177.365 165.038 176.603C165.8 175.841 166.704 175.237 167.699 174.825C168.694 174.412 169.761 174.2 170.838 174.2C171.916 174.2 172.983 174.412 173.978 174.825C174.973 175.237 175.877 175.841 176.639 176.603C177.4 177.365 178.004 178.269 178.416 179.264C178.827 180.26 179.039 181.326 179.038 182.403Z" fill="black"/>
<path fill-rule="evenodd" clip-rule="evenodd" d="M138.999 228.003C143.138 223.584 160.717 222.624 164.394 228.547C168.07 234.479 158.879 246.768 151.692 246.215C144.542 245.661 135.119 232.127 138.999 228.003Z" fill="black"/>
<path fill-rule="evenodd" clip-rule="evenodd" d="M92.7645 137.921C90.0394 98.5083 49.4306 89.5315 47.4722 94.2091C45.5231 98.8958 54.8901 151.585 92.7645 137.921Z" fill="#74401B" stroke="black" stroke-width="0.8" stroke-linejoin="round"/>
<path fill-rule="evenodd" clip-rule="evenodd" d="M208.494 137.921C211.219 98.5083 251.828 89.5315 253.786 94.2091C255.736 98.8958 246.359 151.585 208.494 137.921Z" fill="url(#paint5_linear_805_136)" stroke="black" stroke-width="0.8" stroke-linejoin="round"/>
<path d="M82.0181 494.077C82.0181 499.832 80.0904 505.352 76.6591 509.421C73.2278 513.49 68.574 515.777 63.7214 515.777C58.8689 515.777 54.2151 513.49 50.7838 509.421C47.3525 505.352 45.4248 499.832 45.4248 494.077C45.4248 488.322 47.3525 482.803 50.7838 478.734C54.2151 474.664 58.8689 472.378 63.7214 472.378C68.574 472.378 73.2278 474.664 76.6591 478.734C80.0904 482.803 82.0181 488.322 82.0181 494.077V494.077Z" fill="url(#paint6_linear_805_136)" stroke="black" stroke-width="0.734432" stroke-linecap="round" stroke-linejoin="round"/>
<path d="M127.912 494.077C127.912 499.832 125.984 505.352 122.553 509.421C119.122 513.49 114.468 515.777 109.615 515.777C104.763 515.777 100.109 513.49 96.6778 509.421C93.2465 505.352 91.3188 499.832 91.3188 494.077C91.3188 488.322 93.2465 482.803 96.6778 478.734C100.109 474.664 104.763 472.378 109.615 472.378C114.468 472.378 119.122 474.664 122.553 478.734C125.984 482.803 127.912 488.322 127.912 494.077V494.077Z" fill="url(#paint7_linear_805_136)" stroke="black" stroke-width="0.734432" stroke-linecap="round" stroke-linejoin="round"/>
<path d="M106.203 494.077C106.203 499.832 104.275 505.352 100.844 509.421C97.4127 513.49 92.7589 515.777 87.9064 515.777C83.0539 515.777 78.4001 513.49 74.9688 509.421C71.5375 505.352 69.6099 499.832 69.6099 494.077C69.6099 488.322 71.5375 482.803 74.9688 478.734C78.4001 474.664 83.0539 472.378 87.9064 472.378C92.7589 472.378 97.4127 474.664 100.844 478.734C104.275 482.803 106.203 488.322 106.203 494.077V494.077Z" fill="url(#paint8_linear_805_136)" stroke="black" stroke-width="0.734432" stroke-linecap="round" stroke-linejoin="round"/>
<path d="M222.809 494.077C222.809 499.832 220.881 505.352 217.45 509.421C214.019 513.49 209.365 515.777 204.512 515.777C199.66 515.777 195.006 513.49 191.575 509.421C188.143 505.352 186.216 499.832 186.216 494.077C186.216 488.322 188.143 482.803 191.575 478.734C195.006 474.664 199.66 472.378 204.512 472.378C209.365 472.378 214.019 474.664 217.45 478.734C220.881 482.803 222.809 488.322 222.809 494.077V494.077Z" fill="url(#paint9_linear_805_136)" stroke="black" stroke-width="0.734432" stroke-linecap="round" stroke-linejoin="round"/>
<path d="M268.706 494.077C268.706 499.832 266.779 505.352 263.348 509.421C259.916 513.49 255.262 515.777 250.41 515.777C245.557 515.777 240.903 513.49 237.472 509.421C234.041 505.352 232.113 499.832 232.113 494.077C232.113 488.322 234.041 482.803 237.472 478.734C240.903 474.664 245.557 472.378 250.41 472.378C255.262 472.378 259.916 474.664 263.348 478.734C266.779 482.803 268.706 488.322 268.706 494.077V494.077Z" fill="url(#paint10_linear_805_136)" stroke="black" stroke-width="0.734432" stroke-linecap="round" stroke-linejoin="round"/>
<path d="M246.998 494.077C246.998 499.832 245.07 505.352 241.639 509.421C238.207 513.49 233.553 515.777 228.701 515.777C223.848 515.777 219.195 513.49 215.763 509.421C212.332 505.352 210.404 499.832 210.404 494.077C210.404 488.322 212.332 482.803 215.763 478.734C219.195 474.664 223.848 472.378 228.701 472.378C233.553 472.378 238.207 474.664 241.639 478.734C245.07 482.803 246.998 488.322 246.998 494.077V494.077Z" fill="url(#paint11_linear_805_136)" stroke="black" stroke-width="0.734432" stroke-linecap="round" stroke-linejoin="round"/>
<path d="M223.708 155.478C225.122 161.327 225.879 167.453 225.879 173.727C225.879 216.6 191.044 266.263 148.153 266.263C116.893 266.263 89.9651 239.867 77.6421 208.952C87.1846 244.646 116.911 278.118 152.107 278.118C194.997 278.118 229.833 228.418 229.833 185.545C229.833 174.88 227.653 164.732 223.745 155.478H223.708Z" fill="black" fill-opacity="0.31373"/>
<g filter="url(#filter0_d_805_136)">
<path d="M191.75 236.953C181.188 236.953 171.626 241.235 164.705 248.158L155.193 257.627C154.258 258.562 152.747 258.562 151.812 257.627C151.812 257.627 142.319 248.136 142.3 248.158C135.374 241.235 125.812 236.953 115.25 236.953C94.124 236.953 77 254.077 77 275.203C77 283.183 79.448 290.589 83.6292 296.719C83.6292 296.719 85.3839 299.501 87.459 301.574C89.534 303.647 146.739 360.854 146.739 360.854C148.606 362.722 151.054 363.656 153.5 363.656C155.946 363.656 158.394 362.722 160.261 360.854C160.261 360.854 217.468 303.647 219.541 301.574C221.614 299.501 223.371 296.719 223.371 296.719C227.552 290.589 230 283.183 230 275.203C230 254.077 212.876 236.953 191.75 236.953ZM213.266 277.594C211.944 277.594 210.875 276.525 210.875 275.203C210.875 264.641 202.312 256.078 191.75 256.078C190.428 256.078 189.359 255.01 189.359 253.688C189.359 252.365 190.428 251.297 191.75 251.297C204.951 251.297 215.656 262.002 215.656 275.203C215.656 276.525 214.588 277.594 213.266 277.594Z" fill="#E65271"/>
</g>
<path d="M229.988 352.763C224.638 358.107 217.383 361.11 209.82 361.114C202.257 361.117 195.005 358.12 189.659 352.781C184.314 347.442 181.313 340.199 181.316 332.646C181.319 325.092 184.327 317.847 189.677 312.503C195.027 307.16 202.282 304.156 209.845 304.153C217.408 304.15 224.66 307.147 230.006 312.486C235.351 317.825 238.353 325.067 238.349 332.621C238.346 340.174 235.338 347.42 229.988 352.763Z" fill="url(#paint12_linear_805_136)" stroke="black" stroke-width="0.799998" stroke-linecap="round" stroke-linejoin="round"/>
<path d="M200.157 337.677C198.74 338.057 197.403 338.677 196.221 339.504C195.04 340.331 194.037 341.347 193.271 342.494C192.504 343.642 191.989 344.898 191.754 346.192C191.52 347.486 191.57 348.792 191.903 350.035C192.236 351.278 192.845 352.434 193.695 353.437C194.545 354.441 195.619 355.271 196.857 355.882C198.094 356.492 199.47 356.871 200.907 356.995C202.343 357.12 203.812 356.989 205.229 356.609C206.646 356.23 207.983 355.609 209.165 354.782C210.347 353.956 211.349 352.939 212.116 351.792C212.882 350.644 213.397 349.388 213.632 348.094C213.867 346.8 213.816 345.494 213.483 344.251C213.15 343.008 212.541 341.852 211.691 340.849C210.841 339.845 209.767 339.015 208.53 338.404C207.292 337.794 205.916 337.416 204.479 337.291C203.043 337.166 201.574 337.297 200.157 337.677V337.677Z" fill="url(#paint13_linear_805_136)" stroke="black" stroke-width="0.734456" stroke-linecap="round" stroke-linejoin="round"/>
<path d="M193.802 313.93C192.385 314.309 191.048 314.93 189.866 315.757C188.685 316.583 187.682 317.6 186.916 318.747C186.149 319.895 185.634 321.151 185.399 322.445C185.165 323.739 185.215 325.045 185.548 326.288C185.881 327.531 186.49 328.687 187.34 329.69C188.19 330.694 189.264 331.524 190.502 332.135C191.739 332.745 193.115 333.123 194.552 333.248C195.988 333.373 197.457 333.242 198.874 332.862C201.736 332.095 204.213 330.362 205.761 328.045C207.309 325.727 207.8 323.015 207.128 320.504C206.455 317.993 204.674 315.89 202.175 314.657C199.676 313.424 196.664 313.163 193.802 313.93V313.93Z" fill="url(#paint14_linear_805_136)" stroke="black" stroke-width="0.734456" stroke-linecap="round" stroke-linejoin="round"/>
<path d="M191.105 327.353C188.243 328.12 185.766 329.853 184.218 332.171C182.67 334.488 182.178 337.201 182.851 339.711C183.523 342.222 185.305 344.325 187.804 345.558C190.303 346.791 193.315 347.053 196.176 346.286C199.038 345.519 201.515 343.786 203.063 341.468C204.611 339.151 205.103 336.438 204.43 333.928C204.097 332.684 203.488 331.528 202.639 330.525C201.789 329.522 200.714 328.691 199.477 328.081C196.978 326.848 193.966 326.586 191.105 327.353V327.353Z" fill="url(#paint15_linear_805_136)" stroke="black" stroke-width="0.734456" stroke-linecap="round" stroke-linejoin="round"/>
<path d="M127.485 318.4C129.358 321.641 130.575 325.218 131.065 328.927C131.555 332.636 131.309 336.404 130.342 340.017C129.374 343.631 127.703 347.017 125.425 349.984C123.147 352.951 120.306 355.441 117.064 357.31C113.823 359.179 110.244 360.392 106.532 360.879C102.82 361.365 99.0481 361.117 95.4312 360.147C91.8144 359.178 88.4235 357.506 85.4523 355.228C82.481 352.949 79.9876 350.109 78.1143 346.868C76.241 343.628 75.0246 340.051 74.5344 336.342C74.0443 332.633 74.29 328.864 75.2577 325.251C76.2253 321.638 77.8959 318.251 80.1739 315.284C82.452 312.317 85.293 309.828 88.5348 307.959C91.7765 306.089 95.3554 304.877 99.0673 304.39C102.779 303.903 106.551 304.151 110.168 305.121C113.785 306.091 117.176 307.762 120.147 310.041C123.118 312.319 125.612 315.16 127.485 318.4Z" fill="url(#paint16_linear_805_136)" stroke="black" stroke-width="0.800002" stroke-linecap="round" stroke-linejoin="round"/>
<path d="M111.774 339.461C113.044 340.194 114.175 341.14 115.102 342.243C116.029 343.347 116.734 344.588 117.177 345.895C117.62 347.201 117.792 348.548 117.684 349.858C117.575 351.169 117.188 352.417 116.544 353.532C115.9 354.646 115.012 355.606 113.931 356.355C112.85 357.104 111.597 357.629 110.244 357.899C108.891 358.169 107.463 358.178 106.043 357.928C104.623 357.677 103.239 357.171 101.968 356.438C100.698 355.704 99.5672 354.759 98.64 353.655C97.7129 352.551 97.0077 351.311 96.5648 350.004C96.1218 348.697 95.9498 347.351 96.0585 346.04C96.1672 344.73 96.5545 343.482 97.1984 342.367C97.8422 341.252 98.7299 340.293 99.8108 339.544C100.892 338.794 102.145 338.27 103.498 338C104.852 337.73 106.279 337.72 107.699 337.971C109.119 338.222 110.503 338.728 111.774 339.461V339.461Z" fill="url(#paint17_linear_805_136)" stroke="black" stroke-width="0.734456" stroke-linecap="round" stroke-linejoin="round"/>
<path d="M124.07 318.168C126.635 319.648 128.579 321.963 129.473 324.601C130.368 327.24 130.14 329.987 128.84 332.239C127.539 334.49 125.273 336.061 122.54 336.606C119.807 337.151 116.83 336.625 114.264 335.144C111.699 333.664 109.755 331.35 108.861 328.711C107.966 326.072 108.194 323.325 109.494 321.074C110.795 318.823 113.061 317.252 115.794 316.707C118.527 316.162 121.504 316.687 124.07 318.168V318.168Z" fill="url(#paint18_linear_805_136)" stroke="black" stroke-width="0.734456" stroke-linecap="round" stroke-linejoin="round"/>
<path d="M123.2 331.831C125.765 333.312 127.709 335.626 128.604 338.265C129.498 340.904 129.27 343.651 127.97 345.902C126.67 348.153 124.404 349.724 121.67 350.269C118.937 350.814 115.96 350.289 113.395 348.808C110.829 347.327 108.886 345.013 107.991 342.374C107.096 339.736 107.324 336.989 108.625 334.737C109.925 332.486 112.191 330.915 114.924 330.37C117.658 329.825 120.635 330.351 123.2 331.831V331.831Z" fill="url(#paint19_linear_805_136)" stroke="black" stroke-width="0.734456" stroke-linecap="round" stroke-linejoin="round"/>
<defs>
<filter id="filter0_d_805_136" x="73" y="232.953" width="161" height="134.703" filterUnits="userSpaceOnUse" color-interpolation-filters="sRGB">
<feFlood flood-opacity="0" result="BackgroundImageFix"/>
<feColorMatrix in="SourceAlpha" type="matrix" values="0 0 0 0 0 0 0 0 0 0 0 0 0 0 0 0 0 0 127 0" result="hardAlpha"/>
<feOffset/>
<feGaussianBlur stdDeviation="2"/>
<feComposite in2="hardAlpha" operator="out"/>
<feColorMatrix type="matrix" values="0 0 0 0 0.454902 0 0 0 0 0.25098 0 0 0 0 0.105882 0 0 0 1 0"/>
<feBlend mode="normal" in2="BackgroundImageFix" result="effect1_dropShadow_805_136"/>
<feBlend mode="normal" in="SourceGraphic" in2="effect1_dropShadow_805_136" result="shape"/>
</filter>
<linearGradient id="paint0_linear_805_136" x1="56.026" y1="228.008" x2="389.847" y2="228.008" gradientUnits="userSpaceOnUse">
<stop stop-color="#D07839"/>
</linearGradient>
<linearGradient id="paint1_linear_805_136" x1="-0.846645" y1="358.424" x2="304.272" y2="358.424" gradientUnits="userSpaceOnUse">
<stop stop-color="#D07839"/>
</linearGradient>
<linearGradient id="paint2_linear_805_136" x1="18.806" y1="180.199" x2="282.988" y2="180.199" gradientUnits="userSpaceOnUse">
<stop stop-color="#D07839"/>
</linearGradient>
<linearGradient id="paint3_linear_805_136" x1="104.649" y1="-486.013" x2="156.763" y2="-472.01" gradientUnits="userSpaceOnUse">
<stop stop-color="#D07839"/>
</linearGradient>
<linearGradient id="paint4_linear_805_136" x1="52.5157" y1="-499.942" x2="104.629" y2="-485.94" gradientUnits="userSpaceOnUse">
<stop stop-color="#D07839"/>
</linearGradient>
<linearGradient id="paint5_linear_805_136" x1="-380.242" y1="441.438" x2="-378.333" y2="447.697" gradientUnits="userSpaceOnUse">
<stop stop-color="#74401B"/>
</linearGradient>
<linearGradient id="paint6_linear_805_136" x1="-215.348" y1="366.634" x2="-213.814" y2="371.665" gradientUnits="userSpaceOnUse">
<stop stop-color="#74401B"/>
</linearGradient>
<linearGradient id="paint7_linear_805_136" x1="-213.838" y1="373.071" x2="-212.304" y2="378.101" gradientUnits="userSpaceOnUse">
<stop stop-color="#74401B"/>
</linearGradient>
<linearGradient id="paint8_linear_805_136" x1="-214.552" y1="370.026" x2="-213.017" y2="375.057" gradientUnits="userSpaceOnUse">
<stop stop-color="#74401B"/>
</linearGradient>
<linearGradient id="paint9_linear_805_136" x1="-210.722" y1="386.38" x2="-209.187" y2="391.41" gradientUnits="userSpaceOnUse">
<stop stop-color="#74401B"/>
</linearGradient>
<linearGradient id="paint10_linear_805_136" x1="-209.216" y1="392.817" x2="-207.681" y2="397.847" gradientUnits="userSpaceOnUse">
<stop stop-color="#74401B"/>
</linearGradient>
<linearGradient id="paint11_linear_805_136" x1="-209.929" y1="389.772" x2="-208.395" y2="394.803" gradientUnits="userSpaceOnUse">
<stop stop-color="#74401B"/>
</linearGradient>
<linearGradient id="paint12_linear_805_136" x1="126.372" y1="-528.961" x2="148.124" y2="-523.117" gradientUnits="userSpaceOnUse">
<stop stop-color="#D07839"/>
</linearGradient>
<linearGradient id="paint13_linear_805_136" x1="-271.202" y1="405.638" x2="-270.272" y2="408.686" gradientUnits="userSpaceOnUse">
<stop stop-color="#74401B"/>
</linearGradient>
<linearGradient id="paint14_linear_805_136" x1="-282.069" y1="407.999" x2="-281.139" y2="411.046" gradientUnits="userSpaceOnUse">
<stop stop-color="#74401B"/>
</linearGradient>
<linearGradient id="paint15_linear_805_136" x1="-276.133" y1="405.783" x2="-275.203" y2="408.83" gradientUnits="userSpaceOnUse">
<stop stop-color="#74401B"/>
</linearGradient>
<linearGradient id="paint16_linear_805_136" x1="85.5389" y1="-539.874" x2="107.286" y2="-534.031" gradientUnits="userSpaceOnUse">
<stop stop-color="#D07839"/>
</linearGradient>
<linearGradient id="paint17_linear_805_136" x1="-274.096" y1="392.159" x2="-273.186" y2="395.14" gradientUnits="userSpaceOnUse">
<stop stop-color="#74401B"/>
</linearGradient>
<linearGradient id="paint18_linear_805_136" x1="-283.25" y1="396.799" x2="-282.341" y2="399.78" gradientUnits="userSpaceOnUse">
<stop stop-color="#74401B"/>
</linearGradient>
<linearGradient id="paint19_linear_805_136" x1="-277.147" y1="394.806" x2="-276.237" y2="397.788" gradientUnits="userSpaceOnUse">
<stop stop-color="#74401B"/>
</linearGradient>
</defs>
</svg>
