<svg width="1158" height="710" viewBox="0 0 1158 710" fill="none" xmlns="http://www.w3.org/2000/svg">
<g clip-path="url(#clip0_805_2)">
<path d="M916.875 35.8127C864.756 35.8127 822.504 82.7021 822.504 140.543V214.031H845.106L858.191 186.803L854.919 214.031H1000.19L1012.09 189.278L1009.11 214.031H1025.47V156.33C1025.47 89.7701 976.85 35.8127 916.875 35.8127Z" fill="#2F2E41"/>
<path d="M871.322 167.894C871.322 167.894 900.777 236.622 861.504 250.368L900.777 379.97L967.542 376.043L985.215 332.842L981.288 268.041L975.397 224.84C975.397 224.84 934.16 234.658 938.087 162.003L871.322 167.894Z" fill="#FFB8B8"/>
<path d="M855.613 248.404C855.613 248.404 790.812 242.513 796.703 289.641C802.594 336.769 808.485 346.588 808.485 346.588L814.376 417.28L779.03 438.88H745.647C745.647 438.88 643.536 462.444 694.592 487.972C745.647 513.5 763.32 468.335 763.32 468.335C763.32 468.335 857.577 468.335 863.468 452.626C869.359 436.916 855.613 248.404 855.613 248.404Z" fill="#FFB8B8"/>
<path d="M981.288 228.768C981.288 228.768 1042.16 207.167 1046.09 254.295C1050.02 301.423 1050.02 305.351 1050.02 305.351L1061.8 372.115C1061.8 372.115 1085.36 431.025 1085.36 448.699C1085.36 466.372 1103.04 521.354 1103.04 521.354C1103.04 521.354 1126.6 597.937 1101.07 595.974C1075.54 594.01 1071.62 513.5 1071.62 513.5L1018.6 407.461L1002.89 342.66L981.288 228.768Z" fill="#FFB8B8"/>
<path d="M865.431 240.55H849.722L847.758 323.024C847.758 323.024 822.231 358.37 853.649 389.788L861.504 440.844L1004.85 434.953L1014.67 381.934C1014.67 381.934 1034.31 338.733 1006.82 299.46L981.288 218.949H967.542C967.542 218.949 999.378 336.334 932.196 338.733C877.213 340.697 865.431 240.55 865.431 240.55Z" fill="#2FA4DA"/>
<path d="M935.65 708.603C935.901 683.63 936.12 668.633 936.12 668.633C936.12 668.633 934.638 683.63 932.123 708.603H777.9C818.652 580.199 856.024 474.67 857.537 470.433C857.546 470.386 857.56 470.341 857.579 470.297L862.337 454.445V454.435L864.352 447.714V447.683L866.481 440.638L869.361 431.027L996.993 427.103L1000.56 435.128L1012.71 462.439C1013.77 462.744 1014.77 463.216 1015.67 463.838C1037.52 478.145 1064.79 582.964 1089.64 708.603L935.65 708.603Z" fill="#2F2E41"/>
<path d="M1010.74 411.389L855.613 417.28C855.613 417.28 848.533 470.299 855.613 470.299C857.577 470.299 1018.6 484.045 1016.63 460.48C1014.67 436.916 1010.74 411.389 1010.74 411.389Z" fill="#2F2E41"/>
<path d="M901.672 190.384C932.144 190.384 956.847 165.682 956.847 135.21C956.847 104.737 932.144 80.035 901.672 80.035C871.2 80.035 846.498 104.737 846.498 135.21C846.498 165.682 871.2 190.384 901.672 190.384Z" fill="#FFB8B8"/>
<path d="M943.703 64.6624C934.227 52.462 920.252 44.7343 904.651 44.7343H902.799C867.076 44.7343 838.117 77.0591 838.117 116.934L850.087 116.934L852.02 102.22L854.854 116.934H925.846L931.794 104.486L930.307 116.934H944.273C950.79 149.3 941.426 181.665 916.181 214.03H939.972L951.867 189.134L948.893 214.03H994.245L1003.17 156.768C1003.17 113.884 978.25 77.5196 943.703 64.6624Z" fill="#2F2E41"/>
<path d="M956.742 70.6921C976.263 70.6921 992.088 54.8671 992.088 35.3461C992.088 15.825 976.263 0 956.742 0C937.221 0 921.396 15.825 921.396 35.3461C921.396 54.8671 937.221 70.6921 956.742 70.6921Z" fill="#2F2E41"/>
<path d="M647.905 365.457C674.515 365.457 696.088 343.885 696.088 317.274C696.088 290.663 674.515 269.091 647.905 269.091C621.294 269.091 599.721 290.663 599.721 317.274C599.721 343.885 621.294 365.457 647.905 365.457Z" fill="#2FA4DA"/>
<path d="M302.533 279.597C302.517 280.977 302.163 282.333 301.502 283.546C300.842 284.758 299.895 285.791 298.744 286.554L298.427 286.752H155.692L156.267 285.003C156.366 284.692 166.814 254.37 213.07 260.224C217.433 258.733 260.006 244.832 285.49 260.449C296.797 267.379 302.533 273.821 302.533 279.597Z" fill="#F2F2F2"/>
<path d="M530.463 526.283C544.83 526.592 556.258 537.003 556.258 537.003C556.258 537.003 544.394 546.914 530.027 546.606C515.661 546.298 504.232 535.887 504.232 535.887C504.232 535.887 516.097 525.975 530.463 526.283Z" fill="#2FA4DA"/>
<path d="M458.236 477.243C471.216 483.41 486.099 479.228 486.099 479.228C486.099 479.228 479.938 465.049 466.959 458.883C453.979 452.717 439.096 456.898 439.096 456.898C439.096 456.898 445.257 471.077 458.236 477.243Z" fill="#2FA4DA"/>
<path d="M459.556 471.116C473.866 469.808 486.391 478.869 486.391 478.869C486.391 478.869 475.716 490.05 461.406 491.358C447.095 492.666 434.57 483.605 434.57 483.605C434.57 483.605 445.245 472.423 459.556 471.116Z" fill="#3F3D56"/>
<path d="M512.012 473.593C510.64 487.897 519.645 500.463 519.645 500.463C519.645 500.463 530.874 489.837 532.246 475.533C533.618 461.229 524.612 448.663 524.612 448.663C524.612 448.663 513.383 459.289 512.012 473.593Z" fill="#3F3D56"/>
<path d="M579.405 561.32C571.899 573.573 574.482 588.816 574.482 588.816C574.482 588.816 589.233 584.191 596.739 571.937C604.245 559.683 601.662 544.441 601.662 544.441C601.662 544.441 586.911 549.066 579.405 561.32Z" fill="#3F3D56"/>
<path d="M557.63 694.549L558.724 693.81C554.869 688.215 552.764 681.6 552.676 674.806C552.707 664.867 557.589 655.674 562.31 646.784C563.186 645.134 564.06 643.489 564.9 641.845C568.427 635.143 571.237 628.087 573.285 620.795C580.608 593.581 573.398 561.474 553.999 534.908C538.61 513.834 515.669 495.406 483.867 478.57L483.249 479.737C514.87 496.476 537.664 514.778 552.933 535.687C572.099 561.933 579.23 593.621 572.01 620.452C569.986 627.655 567.209 634.624 563.725 641.245C562.887 642.882 562.017 644.521 561.144 646.165C556.348 655.197 551.388 664.536 551.356 674.802C551.443 681.861 553.627 688.734 557.63 694.549Z" fill="#3F3D56"/>
<path d="M421.179 480.304C428.105 480.304 433.719 474.69 433.719 467.764C433.719 460.837 428.105 455.223 421.179 455.223C414.252 455.223 408.638 460.837 408.638 467.764C408.638 474.69 414.252 480.304 421.179 480.304Z" fill="#3F3D56"/>
<path d="M737.032 709.366H46.624L58.274 694.707L229.206 479.657L237.074 469.756L307.699 380.901L391.828 275.056L500.096 411.27L737.032 709.366Z" fill="#3F3D56"/>
<path d="M505.356 413.747C500.909 416.386 496.266 418.681 491.468 420.611C467.012 430.331 439.814 430.599 415.171 421.363C386.031 410.301 361.812 386.319 330.959 381.906C321.52 380.555 311.983 381.147 302.438 381.718L391.168 270.085L505.356 413.747Z" fill="#F2F2F2"/>
<path d="M538.171 270.387C540.522 277.658 538.962 285.567 537.046 292.965C535.131 300.362 532.852 307.929 533.831 315.508C535.946 331.885 551.982 342.388 566.866 349.537C581.751 356.686 598.497 364.105 605.057 379.259C608.685 387.641 608.514 397.096 609.926 406.12C612.991 425.169 623.122 442.363 638.3 454.275C625.662 453.975 614.341 446.291 605.394 437.359C596.447 428.427 589.026 417.977 579.399 409.783C566.424 398.74 550.219 392.417 534.988 384.781C519.756 377.146 504.58 367.33 496.696 352.226C488.636 336.785 489.528 317.904 495.171 301.426C499.362 289.188 507.069 270.197 516.992 261.461C524.803 254.584 535.217 261.245 538.171 270.387Z" fill="#F2F2F2"/>
<path d="M931.821 612.963H477.049V709.33H931.821V612.963Z" fill="#F2F2F2"/>
<path d="M462.528 623.524L512.032 519.896H907.399L944.362 623.524H462.528Z" fill="#3F3D56"/>
<path d="M769.449 526.497H585.957V587.221H769.449V526.497Z" fill="#F2F2F2"/>
<path d="M597.837 476.993L568.795 537.718H786.611L769.449 476.993H597.837Z" fill="#3F3D56"/>
<path d="M747.008 632.104H602.128V709.33H747.008V632.104Z" fill="#CCCCCC"/>
<path d="M572.095 634.744H494.87V709.33H572.095V634.744Z" fill="#CCCCCC"/>
<path d="M812.023 639.365H772.09V709.33H812.023V639.365Z" fill="#3F3D56"/>
<path d="M874.727 643.325H855.255V661.476H874.727V643.325Z" fill="#2FA4DA"/>
<path d="M900.798 643.325H881.327V661.476H900.798V643.325Z" fill="#2FA4DA"/>
<path d="M874.727 668.077H855.255V686.888H874.727V668.077Z" fill="#2FA4DA"/>
<path d="M900.798 668.077H881.327V686.888H900.798V668.077Z" fill="#2FA4DA"/>
<path d="M618.026 543.113H602.788V557.318H618.026V543.113Z" fill="#3F3D56"/>
<path d="M638.43 543.113H623.192V557.318H638.43V543.113Z" fill="#3F3D56"/>
<path d="M618.026 562.484H602.788V577.206H618.026V562.484Z" fill="#3F3D56"/>
<path d="M638.43 562.484H623.192V577.206H638.43V562.484Z" fill="#3F3D56"/>
<path d="M732.214 543.113H716.976V557.318H732.214V543.113Z" fill="#3F3D56"/>
<path d="M752.618 543.113H737.38V557.318H752.618V543.113Z" fill="#3F3D56"/>
<path d="M732.214 562.484H716.976V577.206H732.214V562.484Z" fill="#3F3D56"/>
<path d="M752.618 562.484H737.38V577.206H752.618V562.484Z" fill="#3F3D56"/>
<path d="M675.45 543.113H660.212V557.318H675.45V543.113Z" fill="#3F3D56"/>
<path d="M695.854 543.113H680.616V557.318H695.854V543.113Z" fill="#3F3D56"/>
<path d="M675.45 562.484H660.212V577.206H675.45V562.484Z" fill="#3F3D56"/>
<path d="M695.854 562.484H680.616V577.206H695.854V562.484Z" fill="#3F3D56"/>
<path d="M790.595 646.453H781V655.397H790.595V646.453Z" fill="#F2F2F2"/>
<path d="M803.442 646.453H793.847V655.397H803.442V646.453Z" fill="#F2F2F2"/>
<path d="M790.595 658.65H781V667.919H790.595V658.65Z" fill="#F2F2F2"/>
<path d="M803.442 658.65H793.847V667.919H803.442V658.65Z" fill="#F2F2F2"/>
<path d="M806.742 681.938C808.2 681.938 809.382 680.756 809.382 679.298C809.382 677.839 808.2 676.657 806.742 676.657C805.284 676.657 804.102 677.839 804.102 679.298C804.102 680.756 805.284 681.938 806.742 681.938Z" fill="#F2F2F2"/>
<path d="M647.575 461.163H625.793V466.397H630.15V481.624H643.219V466.397H647.575V461.163Z" fill="#F2F2F2"/>
<path d="M602.962 686.881C599.21 700.752 586.357 709.342 586.357 709.342C586.357 709.342 579.588 695.444 583.34 681.573C587.093 667.701 599.945 659.111 599.945 659.111C599.945 659.111 606.714 673.009 602.962 686.881Z" fill="#2FA4DA"/>
<path d="M568.826 686.881C572.578 700.752 585.431 709.342 585.431 709.342C585.431 709.342 592.2 695.444 588.447 681.573C584.695 667.701 571.842 659.111 571.842 659.111C571.842 659.111 565.073 673.009 568.826 686.881Z" fill="#2FA4DA"/>
<path d="M574.339 683.9C584.636 693.923 585.893 709.331 585.893 709.331C585.893 709.331 570.457 708.488 560.16 698.465C549.864 688.442 548.606 673.033 548.606 673.033C548.606 673.033 564.042 673.876 574.339 683.9Z" fill="#3F3D56"/>
<path d="M597.448 683.9C587.151 693.923 585.894 709.331 585.894 709.331C585.894 709.331 601.33 708.488 611.627 698.465C621.923 688.442 623.181 673.033 623.181 673.033C623.181 673.033 607.745 673.876 597.448 683.9Z" fill="#3F3D56"/>
<path d="M1157.57 708.68H0V710H1157.57V708.68Z" fill="#3F3D56"/>
<path d="M748.231 333.221C748.215 334.601 747.861 335.957 747.201 337.17C746.541 338.382 745.594 339.415 744.443 340.178L744.126 340.376H601.391L601.965 338.626C602.064 338.316 612.513 307.994 658.769 313.848C663.132 312.357 705.705 298.456 731.189 314.073C742.496 321.003 748.231 327.445 748.231 333.221Z" fill="#F2F2F2"/>
<path d="M308.857 500.966C308.841 502.347 308.487 503.703 307.827 504.915C307.167 506.128 306.22 507.16 305.069 507.923L304.752 508.121H162.017L162.591 506.372C162.69 506.062 173.139 475.739 219.395 481.594C223.758 480.102 266.331 466.202 291.815 481.818C303.122 488.749 308.857 495.191 308.857 500.966Z" fill="#F2F2F2"/>
<path d="M490.979 581.966C490.409 614.306 468.673 628.362 468.316 614.708C467.873 597.437 460.425 552.644 431.193 566.381C396.234 582.807 427.748 682.861 417.628 682.861C377.138 682.861 344.277 637.662 344.277 581.966C344.277 526.275 377.138 481.076 417.628 481.076C458.118 481.076 491.948 526.984 490.979 581.966V581.966Z" fill="url(#paint0_linear_805_2)" stroke="black" stroke-width="0.8" stroke-linecap="round" stroke-linejoin="round"/>
<path d="M471.17 512.756C480.56 529.727 485.22 551.008 485.638 573.351C486.028 593.993 480.4 613.486 469.963 619.009C474.836 620.567 490.409 614.302 490.976 581.962C491.448 555.387 483.783 530.933 471.17 512.756ZM435.821 555.195C432.819 555.252 429.506 556.056 425.852 557.77C390.893 574.196 422.412 674.25 412.291 674.25C391.439 674.25 372.61 662.26 359.25 643.021C372.655 667.222 393.82 682.861 417.628 682.861C427.749 682.861 396.23 582.807 431.189 566.381C442.028 561.292 449.874 564.244 455.478 570.854C451.299 561.85 445.017 555.023 435.821 555.195V555.195Z" fill="black" fill-opacity="0.31373"/>
<path d="M452.967 639.931C452.967 657.689 445.91 674.72 433.348 687.277C420.786 699.835 403.749 706.889 385.983 706.889C368.218 706.889 351.181 699.835 338.619 687.277C326.057 674.72 319 657.689 319 639.931C319 622.173 326.057 605.142 338.619 592.585C351.181 580.028 368.218 572.973 385.983 572.973C403.749 572.973 420.786 580.028 433.348 592.585C445.91 605.142 452.967 622.173 452.967 639.931V639.931Z" fill="url(#paint1_linear_805_2)" stroke="black" stroke-width="0.799968" stroke-linecap="round" stroke-linejoin="round"/>
<path d="M385.986 572.982C378.859 572.982 371.999 574.106 365.553 576.168C371.35 574.815 377.463 574.085 383.782 574.085C401.116 574.085 416.922 579.531 428.816 588.465C417.206 578.797 402.269 572.982 385.986 572.982ZM449.423 618.382C450.301 621.957 450.769 625.648 450.769 629.436C450.769 659.993 420.757 684.788 383.782 684.788C352.862 684.788 326.824 667.451 319.122 643.903C321.175 679.023 350.341 706.901 385.986 706.901C422.962 706.901 452.974 676.903 452.974 639.942C452.974 632.401 451.726 625.147 449.423 618.382Z" fill="black" fill-opacity="0.31373"/>
<path d="M385.986 572.982C374.564 572.982 363.803 575.84 354.389 580.888C358.848 596.457 371.875 610.853 387.263 610.853C402.24 610.853 415.005 597.216 419.788 582.126C409.864 576.316 398.311 572.982 385.986 572.982V572.982Z" fill="black" fill-opacity="0.31373"/>
<path fill-rule="evenodd" clip-rule="evenodd" d="M431.884 517.209C423.75 517.209 407.229 521.53 404.339 532.737C404.294 532.823 404.208 533.135 404.113 533.614C398.883 530.42 392.732 528.563 386.159 528.563C379.295 528.563 372.915 530.588 367.54 534.041C367.429 533.34 367.294 532.848 367.241 532.737C364.35 521.53 347.829 517.221 339.692 517.217C338.399 517.217 337.327 517.328 336.543 517.533C332.178 518.139 327.4 519.882 327.749 520.833C330.951 520.288 332.569 520.911 332.519 521.428C332.421 522.396 330.491 522.654 331.111 526.143C332.281 524.45 333.911 523.868 335.192 523.597C336.506 531.835 342.254 546.215 353.01 546.961C353.934 547.027 354.796 547.023 355.609 547.006C353.072 551.812 351.631 557.286 351.631 563.096C351.631 582.151 367.097 604.231 386.159 604.231C405.218 604.231 420.704 582.151 420.704 563.096C420.704 557.29 419.259 551.828 416.722 547.027C417.309 547.023 417.929 547.006 418.569 546.961C429.289 546.219 435.037 531.921 436.375 523.675C437.599 523.974 439.06 524.589 440.132 526.143C440.752 522.654 438.822 522.396 438.724 521.428C438.674 520.911 440.292 520.288 443.494 520.833C443.827 519.931 439.561 518.32 435.398 517.635C434.606 517.356 433.39 517.209 431.884 517.209V517.209Z" fill="url(#paint2_linear_805_2)" stroke="black" stroke-width="0.8" stroke-linejoin="round"/>
<path d="M399.325 619.46C393.602 613.74 383.416 613.449 377.356 618.825C373.09 622.56 371.391 628.297 370.832 633.73C370.438 637.646 370.672 641.848 372.684 645.338C374.704 647.929 378.222 648.475 381.31 648.631C387.464 648.905 393.968 647.421 398.886 643.53C404.815 638.449 406.198 628.99 401.846 622.507C401.136 621.4 400.278 620.379 399.325 619.46V619.46Z" fill="black" fill-opacity="0.31373"/>
<path d="M379.005 631.044C379.005 634.403 377.67 637.624 375.294 639.999C372.918 642.374 369.696 643.708 366.336 643.708C362.976 643.708 359.754 642.374 357.378 639.999C355.002 637.624 353.667 634.403 353.667 631.044C353.667 627.686 355.002 624.465 357.378 622.09C359.754 619.715 362.976 618.381 366.336 618.381C369.696 618.381 372.918 619.715 375.294 622.09C377.67 624.465 379.005 627.686 379.005 631.044V631.044Z" fill="black" fill-opacity="0.31373"/>
<path d="M397.273 615.36C391.55 609.64 381.364 609.349 375.304 614.724C371.038 618.46 369.338 624.196 368.78 629.629C368.386 633.545 368.62 637.748 370.632 641.237C372.652 643.829 376.17 644.374 379.258 644.53C385.412 644.805 391.915 643.32 396.834 639.429C402.762 634.349 404.146 624.889 399.794 618.406C399.084 617.299 398.226 616.278 397.273 615.36V615.36Z" fill="#DC9A6A" stroke="black" stroke-width="0.8" stroke-linecap="round" stroke-linejoin="round"/>
<path d="M384.365 610.944C385.584 611.235 386.766 611.682 387.871 612.305C388.942 612.883 389.957 613.576 390.864 614.384C396.337 619.058 397.466 627.792 393.471 633.762C390.067 638.433 384.66 641.356 379.13 642.636C376.888 643.14 374.335 643.488 372.15 642.66C374.17 644.046 376.843 644.411 379.253 644.53C385.407 644.805 391.911 643.32 396.833 639.429C402.762 634.349 404.146 624.889 399.794 618.406C399.083 617.295 398.225 616.278 397.273 615.356C393.927 612.01 389.049 610.525 384.365 610.944V610.944Z" fill="black" fill-opacity="0.31373"/>
<path fill-rule="evenodd" clip-rule="evenodd" d="M397.425 613.921C398.554 610.419 404.248 607.184 405.936 608.402C407.623 609.623 407.755 612.527 407.455 612.957C407.159 613.384 404.113 612.067 402.191 613.654C400.274 615.237 399.309 616.59 399.309 616.59L397.425 613.921Z" fill="url(#paint3_linear_805_2)" stroke="black" stroke-width="0.8"/>
<path fill-rule="evenodd" clip-rule="evenodd" d="M407.098 609.923C407.135 610.304 407.081 610.62 406.979 610.743C406.687 611.091 403.768 610.751 401.896 612.198C400.028 613.646 399.083 614.753 399.083 614.753L397.589 613.498C397.532 613.642 397.47 613.781 397.425 613.921L399.309 616.594C399.309 616.594 400.274 615.237 402.191 613.65C404.113 612.067 407.159 613.383 407.455 612.953C407.66 612.662 407.66 611.202 407.098 609.923V609.923Z" fill="black" fill-opacity="0.31373"/>
<path d="M398.738 613.941C393.118 608.381 383.802 606.946 377.249 611.116C375.767 611.932 376.215 613.978 376.231 613.945C378.707 611.989 381.273 614.142 384.644 616.557C388.77 619.514 393.307 624.049 396.636 628.457C398.968 631.54 400.635 634.57 399.301 636.69C399.371 636.711 401.308 637.256 402.195 635.452C406.662 627.042 404.137 618.964 398.738 613.941V613.941Z" fill="url(#paint4_linear_805_2)" stroke="black" stroke-width="0.8" stroke-linecap="round" stroke-linejoin="round"/>
<path d="M398.295 613.322C400.077 617.939 399.843 622.306 397.581 626.521C397.067 627.481 396.279 627.169 395.618 627.157C395.967 627.587 396.308 628.026 396.636 628.456C398.964 631.544 400.635 634.574 399.301 636.69C399.371 636.711 401.309 637.26 402.195 635.456C406.285 627.747 404.49 619.362 398.295 613.322V613.322Z" fill="black" fill-opacity="0.31373"/>
<path d="M375.215 622.143C376.048 623.583 376.589 625.173 376.806 626.821C377.024 628.47 376.915 630.145 376.485 631.75C376.055 633.356 375.312 634.861 374.3 636.18C373.288 637.499 372.025 638.605 370.584 639.436C369.143 640.267 367.553 640.806 365.903 641.022C364.253 641.238 362.577 641.128 360.969 640.697C359.362 640.266 357.855 639.523 356.534 638.51C355.214 637.498 354.105 636.235 353.273 634.795C352.44 633.355 351.9 631.765 351.682 630.117C351.464 628.468 351.573 626.793 352.003 625.187C352.433 623.582 353.176 622.076 354.188 620.758C355.201 619.439 356.463 618.333 357.904 617.502C359.345 616.671 360.936 616.132 362.585 615.916C364.235 615.699 365.911 615.81 367.519 616.241C369.126 616.672 370.634 617.415 371.954 618.427C373.275 619.44 374.383 620.702 375.215 622.143V622.143Z" fill="url(#paint5_linear_805_2)" stroke="black" stroke-width="0.800002" stroke-linecap="round" stroke-linejoin="round"/>
<path d="M426.531 631.241C426.531 634.6 425.196 637.821 422.82 640.196C420.444 642.571 417.222 643.905 413.862 643.905C410.502 643.905 407.28 642.571 404.904 640.196C402.528 637.821 401.193 634.6 401.193 631.241C401.193 627.882 402.528 624.661 404.904 622.287C407.28 619.912 410.502 618.577 413.862 618.577C417.222 618.577 420.444 619.912 422.82 622.287C425.196 624.661 426.531 627.882 426.531 631.241V631.241Z" fill="black" fill-opacity="0.31373"/>
<path d="M420.773 637.415C418.395 639.79 415.171 641.125 411.809 641.127C408.448 641.128 405.225 639.796 402.849 637.423C400.473 635.05 399.139 631.831 399.141 628.474C399.142 625.117 400.479 621.897 402.857 619.522C405.235 617.147 408.459 615.812 411.82 615.811C415.182 615.809 418.405 617.141 420.781 619.514C423.156 621.887 424.49 625.106 424.489 628.463C424.487 631.82 423.151 635.04 420.773 637.415Z" fill="url(#paint6_linear_805_2)" stroke="black" stroke-width="0.799998" stroke-linecap="round" stroke-linejoin="round"/>
<path d="M418.446 668.739C401.683 668.739 388.073 682.344 388.073 699.098C388.073 702.563 388.656 705.884 389.727 708.984H447.149C448.22 705.884 448.803 702.563 448.803 699.098C448.803 682.344 435.21 668.739 418.446 668.739V668.739Z" fill="url(#paint7_linear_805_2)" stroke="black" stroke-width="0.8" stroke-linecap="round" stroke-linejoin="round"/>
<path d="M357.698 668.739C340.935 668.739 327.341 682.344 327.341 699.098C327.341 702.563 327.924 705.884 328.996 708.984H386.417C387.489 705.884 388.072 702.563 388.072 699.098C388.072 682.344 374.462 668.739 357.698 668.739Z" fill="url(#paint8_linear_805_2)" stroke="black" stroke-width="0.8" stroke-linecap="round" stroke-linejoin="round"/>
<path d="M384.954 560.329C384.955 561.811 384.664 563.278 384.097 564.647C383.53 566.016 382.699 567.26 381.652 568.307C380.604 569.355 379.36 570.186 377.991 570.754C376.622 571.321 375.154 571.613 373.672 571.613C372.19 571.613 370.722 571.321 369.353 570.754C367.984 570.186 366.74 569.355 365.692 568.307C364.645 567.26 363.814 566.016 363.247 564.647C362.68 563.278 362.389 561.811 362.39 560.329C362.389 558.848 362.68 557.381 363.247 556.012C363.814 554.643 364.645 553.399 365.692 552.351C366.74 551.303 367.984 550.472 369.353 549.905C370.722 549.338 372.19 549.046 373.672 549.046C375.154 549.046 376.622 549.338 377.991 549.905C379.36 550.472 380.604 551.303 381.652 552.351C382.699 553.399 383.53 554.643 384.097 556.012C384.664 557.381 384.955 558.848 384.954 560.329V560.329Z" fill="white" stroke="black" stroke-width="0.800004" stroke-linecap="round" stroke-linejoin="round"/>
<path d="M409.942 560.329C409.942 561.811 409.651 563.278 409.084 564.647C408.518 566.016 407.687 567.26 406.639 568.307C405.591 569.355 404.347 570.186 402.978 570.754C401.609 571.321 400.141 571.613 398.659 571.613C397.177 571.613 395.71 571.321 394.341 570.754C392.971 570.186 391.727 569.355 390.68 568.307C389.632 567.26 388.801 566.016 388.234 564.647C387.668 563.278 387.376 561.811 387.377 560.329C387.376 558.848 387.668 557.381 388.234 556.012C388.801 554.643 389.632 553.399 390.68 552.351C391.727 551.303 392.971 550.472 394.341 549.905C395.71 549.338 397.177 549.046 398.659 549.046C400.141 549.046 401.609 549.338 402.978 549.905C404.347 550.472 405.591 551.303 406.639 552.351C407.687 553.399 408.518 554.643 409.084 556.012C409.651 557.381 409.942 558.848 409.942 560.329Z" fill="white" stroke="black" stroke-width="0.800004" stroke-linecap="round" stroke-linejoin="round"/>
<path d="M381.459 561.7C381.46 562.178 381.366 562.652 381.183 563.094C381 563.537 380.731 563.939 380.393 564.277C380.054 564.616 379.653 564.884 379.21 565.068C378.768 565.251 378.294 565.345 377.815 565.345C377.336 565.345 376.862 565.251 376.42 565.068C375.977 564.884 375.576 564.616 375.237 564.277C374.899 563.939 374.63 563.537 374.447 563.094C374.264 562.652 374.171 562.178 374.171 561.7C374.171 561.221 374.264 560.747 374.447 560.305C374.63 559.862 374.899 559.46 375.237 559.122C375.576 558.783 375.977 558.515 376.42 558.331C376.862 558.148 377.336 558.054 377.815 558.054C378.294 558.054 378.768 558.148 379.21 558.331C379.653 558.515 380.054 558.783 380.393 559.122C380.731 559.46 381 559.862 381.183 560.305C381.366 560.747 381.46 561.221 381.459 561.7V561.7Z" fill="black"/>
<path d="M398.128 561.7C398.128 562.178 398.034 562.652 397.851 563.094C397.668 563.537 397.4 563.939 397.061 564.277C396.723 564.616 396.321 564.884 395.879 565.068C395.436 565.251 394.962 565.345 394.483 565.345C394.005 565.345 393.531 565.251 393.088 565.068C392.646 564.884 392.244 564.616 391.906 564.277C391.567 563.939 391.299 563.537 391.116 563.094C390.933 562.652 390.839 562.178 390.839 561.7C390.839 561.221 390.933 560.747 391.116 560.305C391.299 559.862 391.567 559.46 391.906 559.122C392.244 558.783 392.646 558.515 393.088 558.331C393.531 558.148 394.005 558.054 394.483 558.054C394.962 558.054 395.436 558.148 395.879 558.331C396.321 558.515 396.723 558.783 397.061 559.122C397.4 559.46 397.668 559.862 397.851 560.305C398.034 560.747 398.128 561.221 398.128 561.7Z" fill="black"/>
<path fill-rule="evenodd" clip-rule="evenodd" d="M380.333 581.966C382.172 580.002 389.986 579.576 391.62 582.208C393.254 584.845 389.168 590.306 385.974 590.06C382.797 589.814 378.609 583.799 380.333 581.966Z" fill="black"/>
<path fill-rule="evenodd" clip-rule="evenodd" d="M359.784 541.93C358.573 524.413 340.525 520.423 339.654 522.502C338.788 524.585 342.951 548.003 359.784 541.93Z" fill="#74401B" stroke="black" stroke-width="0.8" stroke-linejoin="round"/>
<path fill-rule="evenodd" clip-rule="evenodd" d="M411.22 541.93C412.431 524.413 430.479 520.423 431.35 522.502C432.216 524.585 428.049 548.003 411.22 541.93Z" fill="url(#paint9_linear_805_2)" stroke="black" stroke-width="0.8" stroke-linejoin="round"/>
<path d="M355.008 700.222C355.008 702.779 354.151 705.232 352.626 707.041C351.101 708.85 349.033 709.866 346.876 709.866C344.719 709.866 342.651 708.85 341.126 707.041C339.601 705.232 338.744 702.779 338.744 700.222C338.744 697.664 339.601 695.211 341.126 693.402C342.651 691.594 344.719 690.578 346.876 690.578C349.033 690.578 351.101 691.594 352.626 693.402C354.151 695.211 355.008 697.664 355.008 700.222V700.222Z" fill="url(#paint10_linear_805_2)" stroke="black" stroke-width="0.734432" stroke-linecap="round" stroke-linejoin="round"/>
<path d="M375.405 700.222C375.405 702.779 374.548 705.232 373.023 707.041C371.498 708.85 369.43 709.866 367.273 709.866C365.117 709.866 363.048 708.85 361.523 707.041C359.998 705.232 359.142 702.779 359.142 700.222C359.142 697.664 359.998 695.211 361.523 693.402C363.048 691.594 365.117 690.578 367.273 690.578C369.43 690.578 371.498 691.594 373.023 693.402C374.548 695.211 375.405 697.664 375.405 700.222V700.222Z" fill="url(#paint11_linear_805_2)" stroke="black" stroke-width="0.734432" stroke-linecap="round" stroke-linejoin="round"/>
<path d="M365.757 700.222C365.757 702.779 364.9 705.232 363.375 707.041C361.85 708.85 359.782 709.866 357.625 709.866C355.468 709.866 353.4 708.85 351.875 707.041C350.35 705.232 349.493 702.779 349.493 700.222C349.493 697.664 350.35 695.211 351.875 693.402C353.4 691.594 355.468 690.578 357.625 690.578C359.782 690.578 361.85 691.594 363.375 693.402C364.9 695.211 365.757 697.664 365.757 700.222V700.222Z" fill="url(#paint12_linear_805_2)" stroke="black" stroke-width="0.734432" stroke-linecap="round" stroke-linejoin="round"/>
<path d="M417.582 700.222C417.582 702.779 416.725 705.232 415.2 707.041C413.675 708.85 411.607 709.866 409.45 709.866C407.293 709.866 405.225 708.85 403.7 707.041C402.175 705.232 401.318 702.779 401.318 700.222C401.318 697.664 402.175 695.211 403.7 693.402C405.225 691.594 407.293 690.578 409.45 690.578C411.607 690.578 413.675 691.594 415.2 693.402C416.725 695.211 417.582 697.664 417.582 700.222V700.222Z" fill="url(#paint13_linear_805_2)" stroke="black" stroke-width="0.734432" stroke-linecap="round" stroke-linejoin="round"/>
<path d="M437.98 700.222C437.98 702.779 437.124 705.232 435.599 707.041C434.074 708.85 432.005 709.866 429.849 709.866C427.692 709.866 425.624 708.85 424.099 707.041C422.574 705.232 421.717 702.779 421.717 700.222C421.717 697.664 422.574 695.211 424.099 693.402C425.624 691.594 427.692 690.578 429.849 690.578C432.005 690.578 434.074 691.594 435.599 693.402C437.124 695.211 437.98 697.664 437.98 700.222V700.222Z" fill="url(#paint14_linear_805_2)" stroke="black" stroke-width="0.734432" stroke-linecap="round" stroke-linejoin="round"/>
<path d="M428.333 700.222C428.333 702.779 427.476 705.232 425.951 707.041C424.426 708.85 422.357 709.866 420.201 709.866C418.044 709.866 415.976 708.85 414.451 707.041C412.926 705.232 412.069 702.779 412.069 700.222C412.069 697.664 412.926 695.211 414.451 693.402C415.976 691.594 418.044 690.578 420.201 690.578C422.357 690.578 424.426 691.594 425.951 693.402C427.476 695.211 428.333 697.664 428.333 700.222V700.222Z" fill="url(#paint15_linear_805_2)" stroke="black" stroke-width="0.734432" stroke-linecap="round" stroke-linejoin="round"/>
<path d="M417.981 549.733C418.609 552.333 418.946 555.055 418.946 557.844C418.946 576.898 403.464 598.971 384.401 598.971C370.508 598.971 358.54 587.239 353.063 573.499C357.304 589.363 370.516 604.24 386.159 604.24C405.221 604.24 420.703 582.151 420.703 563.096C420.703 558.356 419.734 553.846 417.998 549.733H417.981Z" fill="black" fill-opacity="0.31373"/>
<path d="M368.233 631.503C368.798 631.829 369.3 632.249 369.712 632.74C370.124 633.23 370.438 633.782 370.635 634.363C370.831 634.943 370.908 635.542 370.86 636.124C370.811 636.707 370.639 637.261 370.353 637.757C370.067 638.252 369.672 638.679 369.192 639.012C368.712 639.345 368.155 639.578 367.553 639.698C366.952 639.818 366.317 639.822 365.686 639.711C365.055 639.599 364.44 639.374 363.875 639.048C363.311 638.723 362.808 638.302 362.396 637.812C361.984 637.321 361.67 636.77 361.473 636.189C361.277 635.608 361.2 635.01 361.248 634.427C361.297 633.845 361.469 633.29 361.755 632.795C362.041 632.299 362.436 631.873 362.916 631.54C363.397 631.207 363.953 630.974 364.555 630.854C365.156 630.734 365.791 630.73 366.422 630.841C367.053 630.952 367.668 631.177 368.233 631.503V631.503Z" fill="url(#paint16_linear_805_2)" stroke="black" stroke-width="0.734456" stroke-linecap="round" stroke-linejoin="round"/>
<path d="M373.698 622.04C374.838 622.698 375.702 623.726 376.099 624.899C376.497 626.072 376.396 627.293 375.818 628.293C375.24 629.294 374.233 629.992 373.018 630.234C371.803 630.476 370.48 630.243 369.34 629.585C368.2 628.927 367.336 627.898 366.938 626.725C366.541 625.552 366.642 624.332 367.22 623.331C367.798 622.33 368.805 621.632 370.02 621.39C371.235 621.148 372.558 621.381 373.698 622.04V622.04Z" fill="url(#paint17_linear_805_2)" stroke="black" stroke-width="0.734456" stroke-linecap="round" stroke-linejoin="round"/>
<path d="M373.311 628.112C374.451 628.77 375.315 629.799 375.713 630.971C376.11 632.144 376.009 633.365 375.431 634.366C374.853 635.366 373.846 636.064 372.631 636.307C371.416 636.549 370.093 636.315 368.953 635.657C367.813 634.999 366.949 633.971 366.552 632.798C366.154 631.625 366.255 630.404 366.833 629.404C367.411 628.403 368.418 627.705 369.633 627.463C370.848 627.221 372.171 627.454 373.311 628.112V628.112Z" fill="url(#paint18_linear_805_2)" stroke="black" stroke-width="0.734456" stroke-linecap="round" stroke-linejoin="round"/>
<path d="M407.514 630.71C406.885 630.879 406.29 631.155 405.765 631.522C405.24 631.89 404.794 632.341 404.454 632.851C404.113 633.361 403.884 633.92 403.78 634.495C403.675 635.07 403.698 635.65 403.846 636.203C403.994 636.755 404.265 637.269 404.642 637.715C405.02 638.161 405.498 638.53 406.047 638.801C406.597 639.073 407.209 639.241 407.848 639.296C408.486 639.352 409.139 639.294 409.768 639.125C410.398 638.956 410.993 638.68 411.518 638.313C412.043 637.945 412.489 637.494 412.829 636.984C413.17 636.474 413.399 635.915 413.503 635.34C413.607 634.765 413.585 634.185 413.437 633.632C413.289 633.08 413.018 632.566 412.641 632.12C412.263 631.674 411.785 631.305 411.235 631.034C410.685 630.762 410.074 630.594 409.435 630.539C408.797 630.483 408.144 630.541 407.514 630.71V630.71Z" fill="url(#paint19_linear_805_2)" stroke="black" stroke-width="0.734456" stroke-linecap="round" stroke-linejoin="round"/>
<path d="M404.69 620.156C404.06 620.324 403.466 620.6 402.94 620.968C402.415 621.335 401.97 621.787 401.629 622.297C401.288 622.807 401.059 623.365 400.955 623.94C400.851 624.515 400.873 625.096 401.021 625.648C401.169 626.201 401.44 626.715 401.818 627.16C402.195 627.606 402.673 627.975 403.223 628.247C403.773 628.518 404.384 628.686 405.023 628.742C405.661 628.797 406.314 628.739 406.944 628.57C408.216 628.229 409.317 627.459 410.005 626.429C410.693 625.399 410.911 624.193 410.612 623.078C410.313 621.962 409.521 621.027 408.411 620.479C407.3 619.931 405.962 619.815 404.69 620.156V620.156Z" fill="url(#paint20_linear_805_2)" stroke="black" stroke-width="0.734456" stroke-linecap="round" stroke-linejoin="round"/>
<path d="M403.491 626.122C402.219 626.463 401.118 627.233 400.43 628.263C399.742 629.293 399.524 630.499 399.823 631.614C400.121 632.73 400.913 633.665 402.024 634.213C403.135 634.761 404.473 634.877 405.745 634.536C407.017 634.196 408.118 633.425 408.806 632.395C409.494 631.365 409.712 630.16 409.413 629.044C409.265 628.491 408.995 627.977 408.617 627.532C408.239 627.086 407.762 626.717 407.212 626.445C406.101 625.897 404.763 625.781 403.491 626.122V626.122Z" fill="url(#paint21_linear_805_2)" stroke="black" stroke-width="0.734456" stroke-linecap="round" stroke-linejoin="round"/>
</g>
<defs>
<linearGradient id="paint0_linear_805_2" x1="343.456" y1="581.968" x2="491.821" y2="581.968" gradientUnits="userSpaceOnUse">
<stop stop-color="#D07839"/>
</linearGradient>
<linearGradient id="paint1_linear_805_2" x1="318.179" y1="639.931" x2="453.788" y2="639.931" gradientUnits="userSpaceOnUse">
<stop stop-color="#D07839"/>
</linearGradient>
<linearGradient id="paint2_linear_805_2" x1="326.914" y1="560.72" x2="444.329" y2="560.72" gradientUnits="userSpaceOnUse">
<stop stop-color="#D07839"/>
</linearGradient>
<linearGradient id="paint3_linear_805_2" x1="187.77" y1="663.097" x2="188.196" y2="664.494" gradientUnits="userSpaceOnUse">
<stop stop-color="#74401B"/>
</linearGradient>
<linearGradient id="paint4_linear_805_2" x1="187.326" y1="660.037" x2="188.514" y2="663.933" gradientUnits="userSpaceOnUse">
<stop stop-color="#74401B"/>
</linearGradient>
<linearGradient id="paint5_linear_805_2" x1="356.573" y1="240.687" x2="366.238" y2="243.284" gradientUnits="userSpaceOnUse">
<stop stop-color="#D07839"/>
</linearGradient>
<linearGradient id="paint6_linear_805_2" x1="374.721" y1="245.537" x2="384.389" y2="248.135" gradientUnits="userSpaceOnUse">
<stop stop-color="#D07839"/>
</linearGradient>
<linearGradient id="paint7_linear_805_2" x1="365.067" y1="264.626" x2="388.228" y2="270.849" gradientUnits="userSpaceOnUse">
<stop stop-color="#D07839"/>
</linearGradient>
<linearGradient id="paint8_linear_805_2" x1="341.896" y1="258.435" x2="365.057" y2="264.658" gradientUnits="userSpaceOnUse">
<stop stop-color="#D07839"/>
</linearGradient>
<linearGradient id="paint9_linear_805_2" x1="149.559" y1="676.826" x2="150.408" y2="679.608" gradientUnits="userSpaceOnUse">
<stop stop-color="#74401B"/>
</linearGradient>
<linearGradient id="paint10_linear_805_2" x1="222.845" y1="643.58" x2="223.527" y2="645.816" gradientUnits="userSpaceOnUse">
<stop stop-color="#74401B"/>
</linearGradient>
<linearGradient id="paint11_linear_805_2" x1="223.516" y1="646.441" x2="224.198" y2="648.677" gradientUnits="userSpaceOnUse">
<stop stop-color="#74401B"/>
</linearGradient>
<linearGradient id="paint12_linear_805_2" x1="223.199" y1="645.088" x2="223.881" y2="647.324" gradientUnits="userSpaceOnUse">
<stop stop-color="#74401B"/>
</linearGradient>
<linearGradient id="paint13_linear_805_2" x1="224.901" y1="652.356" x2="225.584" y2="654.592" gradientUnits="userSpaceOnUse">
<stop stop-color="#74401B"/>
</linearGradient>
<linearGradient id="paint14_linear_805_2" x1="225.57" y1="655.217" x2="226.252" y2="657.453" gradientUnits="userSpaceOnUse">
<stop stop-color="#74401B"/>
</linearGradient>
<linearGradient id="paint15_linear_805_2" x1="225.254" y1="653.864" x2="225.936" y2="656.1" gradientUnits="userSpaceOnUse">
<stop stop-color="#74401B"/>
</linearGradient>
<linearGradient id="paint16_linear_805_2" x1="196.735" y1="654.924" x2="197.139" y2="656.25" gradientUnits="userSpaceOnUse">
<stop stop-color="#74401B"/>
</linearGradient>
<linearGradient id="paint17_linear_805_2" x1="192.667" y1="656.987" x2="193.071" y2="658.312" gradientUnits="userSpaceOnUse">
<stop stop-color="#74401B"/>
</linearGradient>
<linearGradient id="paint18_linear_805_2" x1="195.379" y1="656.101" x2="195.783" y2="657.426" gradientUnits="userSpaceOnUse">
<stop stop-color="#74401B"/>
</linearGradient>
<linearGradient id="paint19_linear_805_2" x1="198.021" y1="660.915" x2="198.434" y2="662.27" gradientUnits="userSpaceOnUse">
<stop stop-color="#74401B"/>
</linearGradient>
<linearGradient id="paint20_linear_805_2" x1="193.191" y1="661.964" x2="193.604" y2="663.319" gradientUnits="userSpaceOnUse">
<stop stop-color="#74401B"/>
</linearGradient>
<linearGradient id="paint21_linear_805_2" x1="195.83" y1="660.979" x2="196.243" y2="662.334" gradientUnits="userSpaceOnUse">
<stop stop-color="#74401B"/>
</linearGradient>
<clipPath id="clip0_805_2">
<rect width="1157.57" height="710" fill="white"/>
</clipPath>
</defs>
</svg>
