<svg width="931" height="533" viewBox="0 0 931 533" fill="none" xmlns="http://www.w3.org/2000/svg">
<g clip-path="url(#clip0_805_173)">
<path d="M24.1294 485.696C27.7993 486.986 31.7395 487.31 35.5704 486.635C39.4014 485.96 42.994 484.31 46.0022 481.844C53.6631 475.413 56.0656 464.823 58.0194 455.014L63.8 426L51.6977 434.333C42.9939 440.326 34.0946 446.511 28.0687 455.191C22.0429 463.871 19.414 475.721 24.2541 485.114" fill="#E6E6E6"/>
<path d="M25.9984 522.843C24.4751 511.745 22.9079 500.504 23.9789 489.287C24.9281 479.326 27.9674 469.598 34.1548 461.618C37.4391 457.391 41.4355 453.77 45.9643 450.916C47.1449 450.171 48.2318 452.042 47.0562 452.784C39.22 457.737 33.1588 465.049 29.7466 473.668C25.9782 483.253 25.3731 493.701 26.0222 503.883C26.4146 510.04 27.2483 516.157 28.0856 522.266C28.1517 522.543 28.1105 522.834 27.9702 523.081C27.8298 523.328 27.601 523.512 27.3298 523.597C27.0531 523.672 26.7583 523.634 26.5092 523.493C26.26 523.351 26.0768 523.117 25.9991 522.841L25.9984 522.843Z" fill="#F2F2F2"/>
<path d="M36.9624 505.035C38.5361 507.428 40.6995 509.375 43.2441 510.689C45.7888 512.003 48.6289 512.639 51.4909 512.536C58.8475 512.187 64.9779 507.055 70.4961 502.181L86.8212 487.767L76.0171 487.25C68.2473 486.878 60.277 486.529 52.8764 488.928C45.4759 491.326 38.6508 497.09 37.2978 504.751" fill="#E6E6E6"/>
<path d="M21.6926 529.222C29.0261 516.246 37.5316 501.825 52.7308 497.216C56.9566 495.939 61.3875 495.481 65.7851 495.868C67.1713 495.988 66.8251 498.124 65.4418 498.005C58.0702 497.393 50.7128 499.339 44.6083 503.517C38.7339 507.515 34.1598 513.074 30.289 518.969C27.9176 522.58 25.7935 526.344 23.6695 530.103C22.9908 531.305 21.006 530.437 21.6926 529.222Z" fill="#F2F2F2"/>
<path d="M369.193 166C372.507 166 375.193 163.314 375.193 160C375.193 156.686 372.507 154 369.193 154C365.879 154 363.193 156.686 363.193 160C363.193 163.314 365.879 166 369.193 166Z" fill="#E5E5E5"/>
<path d="M512.687 206.771C489.345 197.084 466.92 185.319 445.684 171.619C394.687 138.816 359.916 100.875 359.16 77.207C358.938 70.2896 361.508 64.8037 366.797 60.9028C375.353 54.5918 390.606 53.0776 410.909 56.5205L410.407 59.4785C390.926 56.1738 376.462 57.5015 368.578 63.3169C364.13 66.5977 361.97 71.2383 362.158 77.1113C362.884 99.8369 397.103 136.803 447.307 169.096C468.389 182.698 490.651 194.377 513.824 203.994L512.687 206.771Z" fill="#3F3D56"/>
<path d="M584.889 224.544C575.992 224.544 565.456 223.112 553.475 220.24L554.174 217.323C579.33 223.352 598.366 222.851 607.777 215.909C612.224 212.628 614.384 207.987 614.197 202.115C613.47 179.389 579.251 142.423 529.048 110.131C503.603 93.7637 476.579 80.1328 450.896 70.7124L451.929 67.896C477.815 77.3911 505.044 91.123 530.671 107.607C581.667 140.41 616.438 178.351 617.195 202.019C617.416 208.937 614.846 214.422 609.557 218.323C603.94 222.466 595.603 224.544 584.889 224.544Z" fill="#3F3D56"/>
<path d="M391.552 224.512C380.809 224.513 372.394 222.452 366.797 218.323C361.508 214.422 358.938 208.937 359.16 202.019C359.916 178.351 394.687 140.41 445.684 107.607C502.679 70.9463 566.653 49.2192 597.802 55.9487L597.169 58.8813C566.724 52.3008 503.697 73.8579 447.307 110.131C397.103 142.423 362.884 179.389 362.158 202.115C361.97 207.987 364.13 212.628 368.578 215.909C391.103 232.521 463.09 211.522 529.048 169.096C574.357 139.952 606.552 107.343 613.069 83.9961L615.959 84.8027C609.253 108.828 576.573 142.094 530.671 171.619C498.368 192.397 463.634 208.726 432.868 217.597C416.887 222.205 402.917 224.512 391.552 224.512Z" fill="#3F3D56"/>
<path d="M431.405 71.5C436.376 71.5 440.405 67.4706 440.405 62.5C440.405 57.5294 436.376 53.5 431.405 53.5C426.435 53.5 422.405 57.5294 422.405 62.5C422.405 67.4706 426.435 71.5 431.405 71.5Z" fill="#2FA4DA"/>
<path d="M531.905 222C536.876 222 540.905 217.971 540.905 213C540.905 208.029 536.876 204 531.905 204C526.935 204 522.905 208.029 522.905 213C522.905 217.971 526.935 222 531.905 222Z" fill="#2FA4DA"/>
<path d="M559.905 301C563.219 301 565.905 298.314 565.905 295C565.905 291.686 563.219 289 559.905 289C556.592 289 553.905 291.686 553.905 295C553.905 298.314 556.592 301 559.905 301Z" fill="#E5E5E5"/>
<path d="M411.905 12C415.219 12 417.905 9.31371 417.905 6C417.905 2.68629 415.219 0 411.905 0C408.592 0 405.905 2.68629 405.905 6C405.905 9.31371 408.592 12 411.905 12Z" fill="#E5E5E5"/>
<path d="M610.905 76C615.876 76 619.905 71.9706 619.905 67C619.905 62.0294 615.876 58 610.905 58C605.935 58 601.905 62.0294 601.905 67C601.905 71.9706 605.935 76 610.905 76Z" fill="#2FA4DA"/>
<path d="M318 533H1C0.734784 533 0.480429 532.895 0.292892 532.707C0.105356 532.52 0 532.265 0 532C0 531.735 0.105356 531.48 0.292892 531.293C0.480429 531.105 0.734784 531 1 531H318C318.265 531 318.52 531.105 318.707 531.293C318.895 531.48 319 531.735 319 532C319 532.265 318.895 532.52 318.707 532.707C318.52 532.895 318.265 533 318 533Z" fill="#CBCBCB"/>
<path d="M751.068 473.471L733.506 468.369L725.837 515.912L737.736 519.37L751.068 473.471Z" fill="#9F616A"/>
<path d="M699.678 520.296L700.183 518.556C701.162 515.185 703.44 512.342 706.516 510.65C709.592 508.959 713.213 508.559 716.584 509.538L741.273 516.71L737.076 531.159L699.678 520.296Z" fill="#2F2E41"/>
<path d="M860.711 471.858L842.422 471.857L848.317 519.652L860.708 519.653L860.711 471.858Z" fill="#9F616A"/>
<path d="M824.419 531.158L824.419 529.345C824.419 527.607 824.761 525.886 825.427 524.281C826.092 522.675 827.067 521.216 828.296 519.987C829.525 518.759 830.983 517.784 832.589 517.119C834.195 516.454 835.916 516.112 837.654 516.112L863.364 516.113L863.363 531.16L824.419 531.158Z" fill="#2F2E41"/>
<path d="M843.894 356.04C846.338 354.868 848.217 352.774 849.117 350.218C850.017 347.661 849.864 344.852 848.693 342.408L845.229 309.789L827.971 302.413L834.405 337.953C832.108 339.267 830.41 341.42 829.669 343.96C828.927 346.5 829.2 349.229 830.429 351.572C831.659 353.915 833.749 355.69 836.26 356.523C838.771 357.356 841.508 357.183 843.894 356.04Z" fill="#9F616A"/>
<path d="M840.806 268.181L820.557 206.711C820.135 206.006 815.095 198.073 804.12 201.448C802.908 201.789 801.78 202.375 800.805 203.17C799.829 203.965 799.028 204.953 798.45 206.071C795.238 212.23 798.234 221.744 798.248 221.795L823.177 277.658L823.203 277.716L831.071 335.086L848.064 331.636L840.806 268.181Z" fill="#2FA4DA"/>
<path d="M706.22 495.587L736.697 402.132L772.034 321.361L771.525 282.187L813.459 272.408L818.342 288.826C846.585 307.461 837.281 343.309 836.617 345.711L879.171 502.756L832.771 507.912L801.626 359.219L772.903 419.638L752.593 510.015L706.22 495.587Z" fill="#2F2E41"/>
<path d="M768.502 249.302C760.165 233.32 766.193 227.235 775.308 218.03C779.033 214.394 782.529 210.53 785.774 206.46C799.995 188.177 816.499 197.157 816.665 197.25L816.757 197.302L820.835 203.418C834.273 216.943 813.895 254.105 812.347 256.873L813.369 283.446L770.033 287.573L768.502 249.302Z" fill="#2FA4DA"/>
<path d="M795.269 189.362C808.979 189.362 820.094 178.248 820.094 164.538C820.094 150.827 808.979 139.713 795.269 139.713C781.559 139.713 770.444 150.827 770.444 164.538C770.444 178.248 781.559 189.362 795.269 189.362Z" fill="#9F616A"/>
<path d="M785.013 351.892C786.05 354.168 787.886 355.986 790.173 356.999C792.46 358.013 795.039 358.152 797.422 357.39C799.805 356.629 801.826 355.02 803.102 352.868C804.378 350.717 804.82 348.172 804.345 345.715L809.247 313.281L794.416 301.778L791.649 337.79C790.212 338.169 788.875 338.857 787.733 339.808C786.591 340.758 785.671 341.948 785.039 343.292C784.406 344.636 784.076 346.103 784.071 347.589C784.067 349.075 784.388 350.544 785.013 351.892Z" fill="#9F616A"/>
<path d="M788.154 335.008L795.155 276.699L785.176 216.36C785.152 215.937 784.656 205.93 789.572 200.507C790.492 199.482 791.613 198.658 792.864 198.085C794.116 197.512 795.473 197.202 796.849 197.176C809.317 196.63 812.299 207.017 812.327 207.122L816.388 271.943L807.227 336.068L788.154 335.008Z" fill="#2FA4DA"/>
<path d="M769.953 160.24L771.304 158.065C774.665 157.395 778.15 157.79 781.275 159.196C784.4 160.602 787.008 162.948 788.736 165.908C789.588 162.766 794.656 162.928 796.531 165.589C798.406 168.249 797.991 171.844 797.382 175.042C796.774 178.239 796.086 181.714 797.562 184.615C798.35 185.97 799.483 187.091 800.845 187.866C802.207 188.641 803.751 189.041 805.318 189.026C808.461 188.949 811.516 187.977 814.125 186.223C818.923 183.168 822.759 178.819 825.19 173.678C827.622 168.537 828.55 162.812 827.866 157.166C827.234 152.768 825.6 148.575 823.091 144.909C824.529 144.8 825.872 144.148 826.845 143.084C827.519 142.205 827.938 141.158 828.054 140.057C828.17 138.956 827.979 137.844 827.504 136.844C826.671 135.096 825.402 133.591 823.821 132.474C824.957 133.381 826.293 134.005 827.718 134.294C829.47 134.547 831.515 133.637 831.832 131.949C832.135 130.34 830.847 128.877 829.657 127.698C828.885 126.933 828.113 126.168 827.341 125.404C827.741 124.951 828.113 124.473 828.455 123.974C829.742 122.171 830.481 120.035 830.583 117.822C830.685 115.609 830.146 113.414 829.031 111.5C831.24 115.273 829.302 119.762 825.41 122.82C825.285 122.919 825.144 123.005 825.016 123.101L823.539 121.638C822.384 120.327 820.969 119.269 819.385 118.532C817.751 117.905 815.664 118.088 814.597 119.418C813.456 120.841 813.776 123.105 812.44 124.356C811.272 125.452 809.369 125.268 807.796 124.806C806.223 124.344 804.598 123.668 803.008 124.014C801.939 124.33 801.025 125.032 800.444 125.984C799.863 126.935 799.657 128.069 799.864 129.164C800.043 130.109 800.441 130.998 801.027 131.76C796.632 131.386 792.213 131.373 787.816 131.719C782.64 132.007 777.351 132.366 772.577 134.386C767.803 136.406 763.559 140.425 762.679 145.533C761.798 150.642 764.788 159.791 769.953 160.24Z" fill="#2F2E41"/>
<path d="M930 533H613C612.735 533 612.48 532.895 612.293 532.707C612.105 532.52 612 532.265 612 532C612 531.735 612.105 531.48 612.293 531.293C612.48 531.105 612.735 531 613 531H930C930.265 531 930.52 531.105 930.707 531.293C930.895 531.48 931 531.735 931 532C931 532.265 930.895 532.52 930.707 532.707C930.52 532.895 930.265 533 930 533Z" fill="#CBCBCB"/>
<path d="M376.086 308.08C375.084 364.842 336.935 389.513 336.308 365.547C335.53 335.234 322.458 256.615 271.151 280.724C209.791 309.555 265.105 485.167 247.342 485.167C176.276 485.167 118.598 405.835 118.598 308.08C118.598 210.331 176.276 131 247.342 131C318.409 131 377.787 211.577 376.086 308.08V308.08Z" fill="url(#paint0_linear_805_173)" stroke="black" stroke-width="0.8" stroke-linecap="round" stroke-linejoin="round"/>
<path d="M341.317 186.603C357.797 216.391 365.976 253.743 366.711 292.959C367.396 329.188 357.516 363.402 339.198 373.096C347.752 375.831 375.085 364.834 376.079 308.072C376.908 261.429 363.454 218.507 341.317 186.603ZM279.272 261.091C274.005 261.192 268.189 262.602 261.776 265.611C200.416 294.441 255.737 470.053 237.974 470.053C201.375 470.053 168.328 449.009 144.879 415.241C168.407 457.718 205.554 485.167 247.342 485.167C265.105 485.167 209.784 309.555 271.144 280.724C290.168 271.793 303.939 276.975 313.775 288.576C306.439 272.772 295.414 260.789 279.272 261.091V261.091Z" fill="black" fill-opacity="0.31373"/>
<path d="M309.367 409.818C309.367 440.987 296.981 470.879 274.933 492.919C252.884 514.959 222.981 527.341 191.8 527.341C160.619 527.341 130.715 514.959 108.667 492.919C86.619 470.879 74.2324 440.987 74.2324 409.818C74.2324 378.649 86.619 348.757 108.667 326.717C130.715 304.677 160.619 292.296 191.8 292.296C222.981 292.296 252.884 304.677 274.933 326.717C296.981 348.757 309.367 378.649 309.367 409.818V409.818Z" fill="url(#paint1_linear_805_173)" stroke="black" stroke-width="0.799968" stroke-linecap="round" stroke-linejoin="round"/>
<path d="M191.805 292.311C179.295 292.311 167.254 294.283 155.94 297.903C166.115 295.528 176.845 294.247 187.935 294.247C218.36 294.247 246.103 303.805 266.979 319.487C246.6 302.516 220.384 292.311 191.805 292.311ZM303.146 371.995C304.688 378.271 305.51 384.748 305.51 391.398C305.51 445.029 252.833 488.549 187.935 488.549C133.666 488.549 87.9654 458.121 74.4468 416.789C78.0498 478.43 129.242 527.362 191.805 527.362C256.703 527.362 309.38 474.709 309.38 409.837C309.38 396.602 307.189 383.87 303.146 371.995Z" fill="black" fill-opacity="0.31373"/>
<path d="M191.805 292.311C171.758 292.311 152.871 297.328 136.347 306.187C144.173 333.514 167.038 358.782 194.046 358.782C220.334 358.782 242.738 334.845 251.133 308.36C233.716 298.162 213.438 292.311 191.805 292.311V292.311Z" fill="black" fill-opacity="0.31373"/>
<path fill-rule="evenodd" clip-rule="evenodd" d="M272.362 194.419C258.087 194.419 229.089 202.005 224.016 221.674C223.937 221.825 223.786 222.372 223.62 223.214C214.439 217.607 203.645 214.347 192.108 214.347C180.059 214.347 168.861 217.903 159.428 223.962C159.234 222.732 158.996 221.868 158.902 221.674C153.829 202.005 124.832 194.441 110.549 194.433C108.279 194.433 106.399 194.628 105.022 194.988C97.3622 196.053 88.9743 199.111 89.5868 200.781C95.2076 199.824 98.0468 200.918 97.9603 201.825C97.7874 203.523 94.4005 203.977 95.4886 210.101C97.5424 207.129 100.403 206.107 102.651 205.632C104.957 220.09 115.046 245.33 133.926 246.64C135.547 246.755 137.061 246.748 138.487 246.719C134.034 255.154 131.505 264.762 131.505 274.96C131.505 308.404 158.65 347.159 192.108 347.159C225.558 347.159 252.74 308.404 252.74 274.96C252.74 264.769 250.203 255.182 245.75 246.755C246.78 246.748 247.868 246.719 248.993 246.64C267.808 245.337 277.896 220.242 280.245 205.769C282.393 206.294 284.958 207.373 286.839 210.101C287.927 203.977 284.54 203.523 284.367 201.825C284.281 200.918 287.12 199.824 292.741 200.781C293.324 199.198 285.837 196.369 278.53 195.168C277.14 194.678 275.007 194.419 272.362 194.419V194.419Z" fill="url(#paint2_linear_805_173)" stroke="black" stroke-width="0.8" stroke-linejoin="round"/>
<path d="M215.218 373.888C205.172 363.849 187.294 363.338 176.658 372.773C169.171 379.329 166.187 389.398 165.207 398.933C164.516 405.806 164.926 413.183 168.457 419.308C172.003 423.856 178.178 424.813 183.597 425.087C194.399 425.569 205.814 422.964 214.447 416.134C224.852 407.217 227.281 390.614 219.642 379.235C218.396 377.292 216.889 375.5 215.218 373.888V373.888Z" fill="black" fill-opacity="0.31373"/>
<path d="M179.551 394.22C179.551 400.115 177.208 405.768 173.038 409.937C168.869 414.105 163.213 416.447 157.316 416.447C151.418 416.447 145.763 414.105 141.593 409.937C137.423 405.768 135.08 400.115 135.08 394.22C135.08 388.325 137.423 382.672 141.593 378.503C145.763 374.335 151.418 371.993 157.316 371.993C163.213 371.993 168.869 374.335 173.038 378.503C177.208 382.672 179.551 388.325 179.551 394.22V394.22Z" fill="black" fill-opacity="0.31373"/>
<path d="M211.615 366.691C201.57 356.651 183.692 356.141 173.055 365.576C165.568 372.132 162.585 382.2 161.605 391.736C160.913 398.609 161.324 405.986 164.855 412.111C168.4 416.659 174.576 417.616 179.995 417.89C190.797 418.372 202.211 415.767 210.844 408.937C221.25 400.02 223.678 383.417 216.04 372.038C214.793 370.095 213.287 368.303 211.615 366.691V366.691Z" fill="#DC9A6A" stroke="black" stroke-width="0.8" stroke-linecap="round" stroke-linejoin="round"/>
<path d="M188.959 358.94C191.099 359.451 193.174 360.236 195.113 361.329C196.993 362.344 198.773 363.561 200.366 364.978C209.972 373.183 211.953 388.512 204.942 398.991C198.968 407.188 189.477 412.319 179.771 414.565C175.836 415.45 171.354 416.062 167.521 414.608C171.066 417.041 175.757 417.681 179.987 417.89C190.789 418.372 202.203 415.767 210.843 408.937C221.249 400.02 223.678 383.417 216.039 372.038C214.792 370.088 213.286 368.303 211.615 366.684C205.742 360.811 197.181 358.206 188.959 358.94V358.94Z" fill="black" fill-opacity="0.31373"/>
<path fill-rule="evenodd" clip-rule="evenodd" d="M211.882 364.165C213.864 358.019 223.858 352.341 226.82 354.478C229.782 356.623 230.012 361.718 229.486 362.474C228.967 363.222 223.621 360.912 220.248 363.697C216.883 366.475 215.189 368.85 215.189 368.85L211.882 364.165Z" fill="url(#paint3_linear_805_173)" stroke="black" stroke-width="0.8"/>
<path fill-rule="evenodd" clip-rule="evenodd" d="M228.859 357.148C228.924 357.817 228.831 358.372 228.65 358.587C228.139 359.199 223.015 358.602 219.729 361.142C216.451 363.683 214.793 365.626 214.793 365.626L212.17 363.424C212.069 363.676 211.961 363.92 211.882 364.165L215.189 368.857C215.189 368.857 216.883 366.475 220.248 363.69C223.621 360.912 228.967 363.222 229.486 362.467C229.847 361.956 229.847 359.393 228.859 357.148V357.148Z" fill="black" fill-opacity="0.31373"/>
<path d="M214.187 364.201C204.322 354.442 187.972 351.923 176.471 359.242C173.869 360.675 174.655 364.266 174.684 364.208C179.029 360.775 183.533 364.554 189.449 368.793C196.691 373.982 204.654 381.941 210.498 389.678C214.591 395.09 217.517 400.409 215.175 404.129C215.297 404.165 218.698 405.123 220.255 401.956C228.095 387.195 223.663 373.017 214.187 364.201V364.201Z" fill="url(#paint4_linear_805_173)" stroke="black" stroke-width="0.8" stroke-linecap="round" stroke-linejoin="round"/>
<path d="M213.409 363.114C216.537 371.218 216.126 378.883 212.155 386.281C211.255 387.965 209.871 387.418 208.711 387.397C209.323 388.152 209.922 388.922 210.498 389.678C214.584 395.097 217.517 400.416 215.175 404.13C215.297 404.165 218.699 405.13 220.255 401.963C227.432 388.433 224.283 373.715 213.409 363.114V363.114Z" fill="black" fill-opacity="0.31373"/>
<path d="M172.9 378.596C174.361 381.124 175.31 383.915 175.693 386.808C176.075 389.701 175.883 392.641 175.129 395.46C174.374 398.278 173.071 400.92 171.294 403.235C169.516 405.549 167.3 407.491 164.771 408.949C162.243 410.407 159.451 411.353 156.555 411.733C153.66 412.113 150.717 411.919 147.896 411.163C145.074 410.406 142.429 409.102 140.111 407.325C137.794 405.547 135.849 403.331 134.387 400.804C132.926 398.276 131.977 395.486 131.595 392.592C131.212 389.699 131.404 386.759 132.159 383.941C132.914 381.122 134.217 378.48 135.994 376.166C137.771 373.851 139.987 371.909 142.516 370.451C145.045 368.993 147.837 368.047 150.732 367.667C153.628 367.287 156.57 367.481 159.392 368.238C162.213 368.994 164.858 370.298 167.176 372.075C169.494 373.853 171.439 376.069 172.9 378.596V378.596Z" fill="url(#paint5_linear_805_173)" stroke="black" stroke-width="0.800002" stroke-linecap="round" stroke-linejoin="round"/>
<path d="M262.967 394.565C262.967 400.46 260.624 406.114 256.454 410.282C252.284 414.451 246.628 416.792 240.731 416.792C234.834 416.792 229.178 414.451 225.008 410.282C220.838 406.114 218.496 400.46 218.496 394.565C218.496 388.671 220.838 383.017 225.008 378.849C229.178 374.68 234.834 372.339 240.731 372.339C246.628 372.339 252.284 374.68 256.454 378.849C260.624 383.017 262.967 388.671 262.967 394.565V394.565Z" fill="black" fill-opacity="0.31373"/>
<path d="M252.861 405.402C248.687 409.571 243.028 411.914 237.128 411.916C231.228 411.919 225.571 409.581 221.401 405.416C217.231 401.251 214.89 395.601 214.893 389.709C214.895 383.817 217.241 378.165 221.415 373.997C225.589 369.828 231.248 367.485 237.148 367.483C243.047 367.48 248.704 369.818 252.874 373.983C257.044 378.147 259.386 383.797 259.383 389.69C259.38 395.582 257.034 401.234 252.861 405.402Z" fill="url(#paint6_linear_805_173)" stroke="black" stroke-width="0.799998" stroke-linecap="round" stroke-linejoin="round"/>
<path d="M248.777 460.38C219.355 460.38 195.466 484.26 195.466 513.666C195.466 519.748 196.49 525.577 198.37 531.018H299.155C301.036 525.577 302.059 519.748 302.059 513.666C302.059 484.26 278.199 460.38 248.777 460.38V460.38Z" fill="url(#paint7_linear_805_173)" stroke="black" stroke-width="0.8" stroke-linecap="round" stroke-linejoin="round"/>
<path d="M142.155 460.38C112.732 460.38 88.873 484.26 88.873 513.666C88.873 519.748 89.8963 525.577 91.7771 531.018H192.561C194.442 525.577 195.465 519.748 195.465 513.666C195.465 484.26 171.577 460.38 142.155 460.38Z" fill="url(#paint8_linear_805_173)" stroke="black" stroke-width="0.8" stroke-linecap="round" stroke-linejoin="round"/>
<path d="M189.994 270.103C189.995 272.704 189.484 275.279 188.489 277.681C187.494 280.084 186.036 282.267 184.197 284.106C182.358 285.945 180.175 287.404 177.771 288.4C175.368 289.395 172.792 289.907 170.191 289.907C167.59 289.907 165.014 289.395 162.611 288.4C160.208 287.404 158.024 285.945 156.185 284.106C154.346 282.267 152.888 280.084 151.893 277.681C150.899 275.279 150.387 272.704 150.389 270.103C150.387 267.503 150.899 264.928 151.893 262.525C152.888 260.123 154.346 257.939 156.185 256.1C158.024 254.261 160.208 252.802 162.611 251.807C165.014 250.811 167.59 250.299 170.191 250.299C172.792 250.299 175.368 250.811 177.771 251.807C180.175 252.802 182.358 254.261 184.197 256.1C186.036 257.939 187.494 260.123 188.489 262.525C189.484 264.928 189.995 267.503 189.994 270.103V270.103Z" fill="white" stroke="black" stroke-width="0.800004" stroke-linecap="round" stroke-linejoin="round"/>
<path d="M233.851 270.103C233.852 272.704 233.341 275.279 232.346 277.681C231.351 280.084 229.893 282.267 228.054 284.106C226.215 285.945 224.032 287.404 221.628 288.4C219.225 289.395 216.649 289.907 214.048 289.907C211.447 289.907 208.871 289.395 206.468 288.4C204.065 287.404 201.881 285.945 200.042 284.106C198.203 282.267 196.745 280.084 195.75 277.681C194.756 275.279 194.244 272.704 194.246 270.103C194.244 267.503 194.756 264.928 195.75 262.525C196.745 260.123 198.203 257.939 200.042 256.1C201.881 254.261 204.065 252.802 206.468 251.807C208.871 250.811 211.447 250.299 214.048 250.299C216.649 250.299 219.225 250.811 221.628 251.807C224.032 252.802 226.215 254.261 228.054 256.1C229.893 257.939 231.351 260.123 232.346 262.525C233.341 264.928 233.852 267.503 233.851 270.103Z" fill="white" stroke="black" stroke-width="0.800004" stroke-linecap="round" stroke-linejoin="round"/>
<path d="M183.859 272.508C183.86 273.348 183.695 274.18 183.374 274.957C183.053 275.733 182.582 276.438 181.988 277.033C181.394 277.627 180.688 278.098 179.912 278.42C179.136 278.742 178.303 278.907 177.463 278.907C176.623 278.907 175.79 278.742 175.014 278.42C174.238 278.098 173.532 277.627 172.938 277.033C172.344 276.438 171.873 275.733 171.552 274.957C171.231 274.18 171.066 273.348 171.067 272.508C171.066 271.668 171.231 270.836 171.552 270.06C171.873 269.284 172.344 268.578 172.938 267.984C173.532 267.39 174.238 266.918 175.014 266.597C175.79 266.275 176.623 266.109 177.463 266.109C178.303 266.109 179.136 266.275 179.912 266.597C180.688 266.918 181.394 267.39 181.988 267.984C182.582 268.578 183.053 269.284 183.374 270.06C183.695 270.836 183.86 271.668 183.859 272.508V272.508Z" fill="black"/>
<path d="M213.115 272.508C213.116 273.348 212.951 274.18 212.63 274.957C212.309 275.733 211.838 276.438 211.244 277.033C210.65 277.627 209.945 278.098 209.168 278.42C208.392 278.742 207.56 278.907 206.719 278.907C205.879 278.907 205.047 278.742 204.27 278.42C203.494 278.098 202.789 277.627 202.195 277.033C201.601 276.438 201.13 275.733 200.809 274.957C200.487 274.18 200.323 273.348 200.323 272.508C200.323 271.668 200.487 270.836 200.809 270.06C201.13 269.284 201.601 268.578 202.195 267.984C202.789 267.39 203.494 266.918 204.27 266.597C205.047 266.275 205.879 266.109 206.719 266.109C207.56 266.109 208.392 266.275 209.168 266.597C209.945 266.918 210.65 267.39 211.244 267.984C211.838 268.578 212.309 269.284 212.63 270.06C212.951 270.836 213.116 271.668 213.115 272.508Z" fill="black"/>
<path fill-rule="evenodd" clip-rule="evenodd" d="M181.882 308.08C185.111 304.632 198.824 303.884 201.692 308.504C204.56 313.132 197.39 322.718 191.784 322.286C186.206 321.855 178.856 311.297 181.882 308.08Z" fill="black"/>
<path fill-rule="evenodd" clip-rule="evenodd" d="M145.816 237.809C143.69 207.064 112.012 200.061 110.484 203.71C108.964 207.366 116.271 248.468 145.816 237.809Z" fill="#74401B" stroke="black" stroke-width="0.8" stroke-linejoin="round"/>
<path fill-rule="evenodd" clip-rule="evenodd" d="M236.094 237.809C238.22 207.064 269.898 200.061 271.425 203.71C272.946 207.366 265.631 248.468 236.094 237.809Z" fill="url(#paint9_linear_805_173)" stroke="black" stroke-width="0.8" stroke-linejoin="round"/>
<path d="M137.433 515.638C137.433 520.128 135.929 524.433 133.252 527.608C130.576 530.782 126.945 532.565 123.16 532.565C119.375 532.565 115.744 530.782 113.068 527.608C110.391 524.433 108.887 520.128 108.887 515.638C108.887 511.149 110.391 506.843 113.068 503.669C115.744 500.495 119.375 498.711 123.16 498.711C126.945 498.711 130.576 500.495 133.252 503.669C135.929 506.843 137.433 511.149 137.433 515.638V515.638Z" fill="url(#paint10_linear_805_173)" stroke="black" stroke-width="0.734432" stroke-linecap="round" stroke-linejoin="round"/>
<path d="M173.233 515.638C173.233 520.128 171.73 524.433 169.053 527.608C166.376 530.782 162.746 532.565 158.961 532.565C155.175 532.565 151.545 530.782 148.868 527.608C146.192 524.433 144.688 520.128 144.688 515.638C144.688 511.149 146.192 506.843 148.868 503.669C151.545 500.495 155.175 498.711 158.961 498.711C162.746 498.711 166.376 500.495 169.053 503.669C171.73 506.843 173.233 511.149 173.233 515.638V515.638Z" fill="url(#paint11_linear_805_173)" stroke="black" stroke-width="0.734432" stroke-linecap="round" stroke-linejoin="round"/>
<path d="M156.299 515.638C156.299 520.128 154.795 524.433 152.118 527.608C149.442 530.782 145.811 532.565 142.026 532.565C138.241 532.565 134.61 530.782 131.934 527.608C129.257 524.433 127.753 520.128 127.753 515.638C127.753 511.149 129.257 506.843 131.934 503.669C134.61 500.495 138.241 498.711 142.026 498.711C145.811 498.711 149.442 500.495 152.118 503.669C154.795 506.843 156.299 511.149 156.299 515.638V515.638Z" fill="url(#paint12_linear_805_173)" stroke="black" stroke-width="0.734432" stroke-linecap="round" stroke-linejoin="round"/>
<path d="M247.26 515.638C247.26 520.128 245.757 524.433 243.08 527.608C240.403 530.782 236.773 532.565 232.988 532.565C229.202 532.565 225.572 530.782 222.895 527.608C220.219 524.433 218.715 520.128 218.715 515.638C218.715 511.149 220.219 506.843 222.895 503.669C225.572 500.495 229.202 498.711 232.988 498.711C236.773 498.711 240.403 500.495 243.08 503.669C245.757 506.843 247.26 511.149 247.26 515.638V515.638Z" fill="url(#paint13_linear_805_173)" stroke="black" stroke-width="0.734432" stroke-linecap="round" stroke-linejoin="round"/>
<path d="M283.064 515.638C283.064 520.128 281.56 524.433 278.884 527.608C276.207 530.782 272.577 532.565 268.791 532.565C265.006 532.565 261.376 530.782 258.699 527.608C256.022 524.433 254.519 520.128 254.519 515.638C254.519 511.149 256.022 506.843 258.699 503.669C261.376 500.495 265.006 498.711 268.791 498.711C272.577 498.711 276.207 500.495 278.884 503.669C281.56 506.843 283.064 511.149 283.064 515.638V515.638Z" fill="url(#paint14_linear_805_173)" stroke="black" stroke-width="0.734432" stroke-linecap="round" stroke-linejoin="round"/>
<path d="M266.129 515.638C266.129 520.128 264.626 524.433 261.949 527.608C259.272 530.782 255.642 532.565 251.857 532.565C248.071 532.565 244.441 530.782 241.764 527.608C239.088 524.433 237.584 520.128 237.584 515.638C237.584 511.149 239.088 506.843 241.764 503.669C244.441 500.495 248.071 498.711 251.857 498.711C255.642 498.711 259.272 500.495 261.949 503.669C264.626 506.843 266.129 511.149 266.129 515.638V515.638Z" fill="url(#paint15_linear_805_173)" stroke="black" stroke-width="0.734432" stroke-linecap="round" stroke-linejoin="round"/>
<path d="M247.962 251.505C249.064 256.068 249.655 260.846 249.655 265.74C249.655 299.184 222.481 337.925 189.023 337.925C164.638 337.925 143.632 317.335 134.019 293.218C141.463 321.063 164.652 347.173 192.107 347.173C225.565 347.173 252.739 308.404 252.739 274.96C252.739 266.64 251.039 258.723 247.991 251.505H247.962Z" fill="black" fill-opacity="0.31373"/>
<path d="M160.645 395.026C161.636 395.598 162.518 396.335 163.241 397.196C163.965 398.057 164.515 399.025 164.86 400.044C165.206 401.064 165.34 402.114 165.255 403.137C165.17 404.159 164.868 405.132 164.366 406.002C163.864 406.872 163.171 407.62 162.328 408.204C161.485 408.789 160.508 409.198 159.452 409.409C158.396 409.619 157.282 409.627 156.175 409.431C155.067 409.236 153.987 408.841 152.996 408.269C152.005 407.697 151.123 406.959 150.4 406.098C149.677 405.237 149.126 404.269 148.781 403.25C148.435 402.231 148.301 401.18 148.386 400.158C148.471 399.136 148.773 398.162 149.275 397.293C149.777 396.423 150.47 395.675 151.313 395.09C152.156 394.506 153.134 394.096 154.189 393.886C155.245 393.675 156.359 393.668 157.466 393.863C158.574 394.059 159.654 394.454 160.645 395.026V395.026Z" fill="url(#paint16_linear_805_173)" stroke="black" stroke-width="0.734456" stroke-linecap="round" stroke-linejoin="round"/>
<path d="M170.236 378.415C172.237 379.57 173.753 381.375 174.451 383.434C175.149 385.492 174.971 387.635 173.957 389.391C172.943 391.148 171.175 392.373 169.043 392.798C166.91 393.223 164.588 392.813 162.587 391.658C160.586 390.503 159.07 388.698 158.372 386.64C157.674 384.581 157.852 382.438 158.866 380.682C159.88 378.926 161.648 377.7 163.78 377.275C165.913 376.85 168.235 377.26 170.236 378.415V378.415Z" fill="url(#paint17_linear_805_173)" stroke="black" stroke-width="0.734456" stroke-linecap="round" stroke-linejoin="round"/>
<path d="M169.559 389.074C171.56 390.229 173.076 392.034 173.774 394.093C174.472 396.151 174.294 398.294 173.28 400.05C172.265 401.806 170.498 403.032 168.365 403.457C166.233 403.882 163.911 403.472 161.91 402.317C159.909 401.162 158.392 399.357 157.695 397.298C156.997 395.24 157.174 393.097 158.189 391.341C159.203 389.585 160.971 388.359 163.103 387.934C165.235 387.509 167.558 387.919 169.559 389.074V389.074Z" fill="url(#paint18_linear_805_173)" stroke="black" stroke-width="0.734456" stroke-linecap="round" stroke-linejoin="round"/>
<path d="M229.59 393.634C228.485 393.93 227.442 394.414 226.52 395.059C225.598 395.704 224.816 396.497 224.218 397.392C223.62 398.287 223.218 399.267 223.035 400.276C222.852 401.286 222.892 402.304 223.152 403.274C223.411 404.244 223.886 405.146 224.549 405.928C225.212 406.711 226.05 407.359 227.016 407.835C227.981 408.311 229.055 408.606 230.175 408.704C231.296 408.801 232.441 408.699 233.547 408.403C234.652 408.106 235.695 407.622 236.617 406.977C237.539 406.332 238.321 405.54 238.919 404.645C239.517 403.749 239.919 402.769 240.102 401.76C240.285 400.751 240.245 399.732 239.985 398.762C239.726 397.792 239.251 396.891 238.588 396.108C237.925 395.325 237.087 394.678 236.121 394.201C235.156 393.725 234.083 393.43 232.962 393.332C231.841 393.235 230.696 393.337 229.59 393.634V393.634Z" fill="url(#paint19_linear_805_173)" stroke="black" stroke-width="0.734456" stroke-linecap="round" stroke-linejoin="round"/>
<path d="M224.632 375.109C223.527 375.405 222.484 375.89 221.562 376.534C220.64 377.179 219.858 377.972 219.26 378.867C218.662 379.762 218.26 380.742 218.077 381.752C217.894 382.761 217.934 383.78 218.194 384.749C218.453 385.719 218.928 386.621 219.591 387.404C220.254 388.186 221.092 388.834 222.058 389.31C223.023 389.786 224.096 390.082 225.217 390.179C226.338 390.277 227.483 390.174 228.589 389.878C230.821 389.28 232.753 387.928 233.961 386.12C235.168 384.312 235.552 382.196 235.027 380.238C234.503 378.279 233.113 376.638 231.163 375.677C229.214 374.715 226.865 374.511 224.632 375.109V375.109Z" fill="url(#paint20_linear_805_173)" stroke="black" stroke-width="0.734456" stroke-linecap="round" stroke-linejoin="round"/>
<path d="M222.528 385.58C220.296 386.179 218.364 387.531 217.156 389.338C215.949 391.146 215.565 393.262 216.09 395.221C216.614 397.179 218.004 398.82 219.954 399.782C221.903 400.743 224.252 400.948 226.485 400.349C228.717 399.751 230.649 398.399 231.857 396.591C233.064 394.783 233.448 392.667 232.923 390.709C232.664 389.739 232.189 388.837 231.526 388.055C230.863 387.272 230.025 386.624 229.059 386.148C227.11 385.186 224.761 384.982 222.528 385.58V385.58Z" fill="url(#paint21_linear_805_173)" stroke="black" stroke-width="0.734456" stroke-linecap="round" stroke-linejoin="round"/>
</g>
<defs>
<linearGradient id="paint0_linear_805_173" x1="117.157" y1="308.083" x2="377.563" y2="308.083" gradientUnits="userSpaceOnUse">
<stop stop-color="#D07839"/>
</linearGradient>
<linearGradient id="paint1_linear_805_173" x1="72.7919" y1="409.818" x2="310.808" y2="409.818" gradientUnits="userSpaceOnUse">
<stop stop-color="#D07839"/>
</linearGradient>
<linearGradient id="paint2_linear_805_173" x1="88.1225" y1="270.789" x2="294.205" y2="270.789" gradientUnits="userSpaceOnUse">
<stop stop-color="#D07839"/>
</linearGradient>
<linearGradient id="paint3_linear_805_173" x1="-156.099" y1="450.479" x2="-155.351" y2="452.93" gradientUnits="userSpaceOnUse">
<stop stop-color="#74401B"/>
</linearGradient>
<linearGradient id="paint4_linear_805_173" x1="-156.878" y1="445.107" x2="-154.792" y2="451.944" gradientUnits="userSpaceOnUse">
<stop stop-color="#74401B"/>
</linearGradient>
<linearGradient id="paint5_linear_805_173" x1="140.179" y1="-290.923" x2="157.143" y2="-286.365" gradientUnits="userSpaceOnUse">
<stop stop-color="#D07839"/>
</linearGradient>
<linearGradient id="paint6_linear_805_173" x1="172.032" y1="-282.41" x2="189" y2="-277.851" gradientUnits="userSpaceOnUse">
<stop stop-color="#D07839"/>
</linearGradient>
<linearGradient id="paint7_linear_805_173" x1="155.087" y1="-248.907" x2="195.74" y2="-237.984" gradientUnits="userSpaceOnUse">
<stop stop-color="#D07839"/>
</linearGradient>
<linearGradient id="paint8_linear_805_173" x1="114.418" y1="-259.773" x2="155.071" y2="-248.85" gradientUnits="userSpaceOnUse">
<stop stop-color="#D07839"/>
</linearGradient>
<linearGradient id="paint9_linear_805_173" x1="-223.166" y1="474.575" x2="-221.676" y2="479.458" gradientUnits="userSpaceOnUse">
<stop stop-color="#74401B"/>
</linearGradient>
<linearGradient id="paint10_linear_805_173" x1="-94.5357" y1="416.223" x2="-93.3387" y2="420.147" gradientUnits="userSpaceOnUse">
<stop stop-color="#74401B"/>
</linearGradient>
<linearGradient id="paint11_linear_805_173" x1="-93.3579" y1="421.244" x2="-92.1608" y2="425.168" gradientUnits="userSpaceOnUse">
<stop stop-color="#74401B"/>
</linearGradient>
<linearGradient id="paint12_linear_805_173" x1="-93.9144" y1="418.869" x2="-92.7173" y2="422.793" gradientUnits="userSpaceOnUse">
<stop stop-color="#74401B"/>
</linearGradient>
<linearGradient id="paint13_linear_805_173" x1="-90.927" y1="431.626" x2="-89.7299" y2="435.55" gradientUnits="userSpaceOnUse">
<stop stop-color="#74401B"/>
</linearGradient>
<linearGradient id="paint14_linear_805_173" x1="-89.7519" y1="436.647" x2="-88.5548" y2="440.572" gradientUnits="userSpaceOnUse">
<stop stop-color="#74401B"/>
</linearGradient>
<linearGradient id="paint15_linear_805_173" x1="-90.3083" y1="434.272" x2="-89.1112" y2="438.197" gradientUnits="userSpaceOnUse">
<stop stop-color="#74401B"/>
</linearGradient>
<linearGradient id="paint16_linear_805_173" x1="-140.363" y1="436.134" x2="-139.653" y2="438.46" gradientUnits="userSpaceOnUse">
<stop stop-color="#74401B"/>
</linearGradient>
<linearGradient id="paint17_linear_805_173" x1="-147.505" y1="439.753" x2="-146.795" y2="442.079" gradientUnits="userSpaceOnUse">
<stop stop-color="#74401B"/>
</linearGradient>
<linearGradient id="paint18_linear_805_173" x1="-142.743" y1="438.199" x2="-142.033" y2="440.525" gradientUnits="userSpaceOnUse">
<stop stop-color="#74401B"/>
</linearGradient>
<linearGradient id="paint19_linear_805_173" x1="-138.106" y1="446.649" x2="-137.381" y2="449.026" gradientUnits="userSpaceOnUse">
<stop stop-color="#74401B"/>
</linearGradient>
<linearGradient id="paint20_linear_805_173" x1="-146.583" y1="448.49" x2="-145.858" y2="450.868" gradientUnits="userSpaceOnUse">
<stop stop-color="#74401B"/>
</linearGradient>
<linearGradient id="paint21_linear_805_173" x1="-141.953" y1="446.761" x2="-141.227" y2="449.139" gradientUnits="userSpaceOnUse">
<stop stop-color="#74401B"/>
</linearGradient>
<clipPath id="clip0_805_173">
<rect width="931" height="533" fill="white"/>
</clipPath>
</defs>
</svg>
