<svg width="520" height="439" viewBox="0 0 520 439" fill="none" xmlns="http://www.w3.org/2000/svg">
<g clip-path="url(#clip0_801_71)">
<path d="M322.962 195.113C321.904 255.092 281.592 281.162 280.93 255.838C280.108 223.806 266.295 140.731 212.08 166.207C147.242 196.672 205.691 382.237 186.921 382.237C111.827 382.237 50.8804 298.409 50.8804 195.113C50.8804 91.8249 111.827 7.99713 186.921 7.99713C262.016 7.99713 324.759 93.1405 322.962 195.113V195.113Z" fill="url(#paint0_linear_801_71)" stroke="black" stroke-width="0.8" stroke-linecap="round" stroke-linejoin="round"/>
<path d="M286.222 66.7518C303.636 98.2281 312.279 137.697 313.056 179.136C313.779 217.418 303.339 253.571 283.983 263.815C293.022 266.705 321.904 255.085 322.954 195.106C323.83 145.819 309.614 100.464 286.222 66.7518ZM220.661 145.462C215.095 145.568 208.95 147.059 202.173 150.237C137.335 180.702 195.792 366.267 177.022 366.267C138.348 366.267 103.428 344.031 78.6504 308.349C103.512 353.232 142.765 382.237 186.921 382.237C205.691 382.237 147.234 196.672 212.072 166.207C232.174 156.77 246.726 162.245 257.119 174.504C249.368 157.804 237.718 145.142 220.661 145.462V145.462Z" fill="black" fill-opacity="0.31373"/>
<path d="M252.462 302.618C252.462 335.554 239.373 367.14 216.076 390.429C192.778 413.718 161.179 426.801 128.231 426.801C95.2828 426.801 63.6842 413.718 40.3864 390.429C17.0886 367.14 4 335.554 4 302.618C4 269.683 17.0886 238.096 40.3864 214.807C63.6842 191.518 95.2828 178.435 128.231 178.435C161.179 178.435 192.778 191.518 216.076 214.807C239.373 238.096 252.462 269.683 252.462 302.618V302.618Z" fill="url(#paint1_linear_801_71)" stroke="black" stroke-width="0.799968" stroke-linecap="round" stroke-linejoin="round"/>
<path d="M128.237 178.451C115.018 178.451 102.294 180.535 90.3391 184.36C101.091 181.851 112.429 180.497 124.148 180.497C156.296 180.497 185.612 190.596 207.671 207.167C186.137 189.235 158.436 178.451 128.237 178.451ZM245.888 262.652C247.518 269.283 248.386 276.127 248.386 283.154C248.386 339.825 192.724 385.811 124.148 385.811C66.8026 385.811 18.5114 353.658 4.22656 309.984C8.03382 375.119 62.1273 426.824 128.237 426.824C196.813 426.824 252.475 371.187 252.475 302.638C252.475 288.652 250.16 275.2 245.888 262.652Z" fill="black" fill-opacity="0.31373"/>
<path d="M128.237 178.451C107.053 178.451 87.0958 183.752 69.6357 193.113C77.9051 221.989 102.066 248.689 130.605 248.689C158.383 248.689 182.056 223.396 190.927 195.41C172.523 184.634 151.096 178.451 128.237 178.451V178.451Z" fill="black" fill-opacity="0.31373"/>
<path fill-rule="evenodd" clip-rule="evenodd" d="M213.359 75.0107C198.275 75.0107 167.634 83.0261 162.274 103.81C162.19 103.97 162.03 104.548 161.855 105.438C152.154 99.5134 140.747 96.0684 128.556 96.0684C115.825 96.0684 103.992 99.8252 94.0247 106.228C93.8191 104.928 93.5678 104.015 93.4688 103.81C88.1082 83.0261 57.4674 75.0335 42.3755 75.0259C39.9769 75.0259 37.9895 75.2312 36.5351 75.6115C28.4409 76.737 19.5776 79.969 20.2249 81.7333C26.1642 80.7219 29.1643 81.8778 29.0729 82.836C28.8902 84.6308 25.3114 85.1099 26.4611 91.5815C28.6313 88.4408 31.6542 87.3609 34.03 86.859C36.4666 102.137 47.1269 128.807 67.0769 130.191C68.7902 130.313 70.3892 130.305 71.8969 130.275C67.1912 139.188 64.5185 149.34 64.5185 160.116C64.5185 195.456 93.2023 236.407 128.556 236.407C163.903 236.407 192.625 195.456 192.625 160.116C192.625 149.348 189.945 139.218 185.239 130.313C186.328 130.305 187.478 130.275 188.665 130.191C208.547 128.815 219.207 102.297 221.69 87.0035C223.959 87.5586 226.669 88.6993 228.657 91.5815C229.807 85.1099 226.228 84.6308 226.045 82.836C225.954 81.8778 228.954 80.7219 234.893 81.7333C235.51 80.0603 227.598 77.0716 219.877 75.8016C218.408 75.2845 216.154 75.0107 213.359 75.0107V75.0107Z" fill="url(#paint2_linear_801_71)" stroke="black" stroke-width="0.8" stroke-linejoin="round"/>
<path d="M115.288 286.136C115.288 292.365 112.813 298.339 108.406 302.744C104 307.148 98.0236 309.623 91.7922 309.623C85.5607 309.623 79.5844 307.148 75.1781 302.744C70.7718 298.339 68.2964 292.365 68.2964 286.136C68.2964 279.907 70.7718 273.933 75.1781 269.528C79.5844 265.124 85.5607 262.649 91.7922 262.649C98.0236 262.649 104 265.124 108.406 269.528C112.813 273.933 115.288 279.907 115.288 286.136V286.136Z" fill="black" fill-opacity="0.31373"/>
<path d="M203.432 286.501C203.432 292.73 200.956 298.704 196.55 303.109C192.143 307.513 186.167 309.988 179.936 309.988C173.704 309.988 167.728 307.513 163.322 303.109C158.915 298.704 156.44 292.73 156.44 286.501C156.44 280.272 158.915 274.298 163.322 269.893C167.728 265.489 173.704 263.014 179.936 263.014C186.167 263.014 192.143 265.489 196.55 269.893C200.956 274.298 203.432 280.272 203.432 286.501V286.501Z" fill="black" fill-opacity="0.31373"/>
<path d="M188.438 356.046C157.348 356.046 132.105 381.279 132.105 412.352C132.105 418.778 133.187 424.938 135.174 430.687H241.671C243.658 424.938 244.739 418.778 244.739 412.352C244.739 381.279 219.528 356.046 188.438 356.046V356.046Z" fill="url(#paint3_linear_801_71)" stroke="black" stroke-width="0.8" stroke-linecap="round" stroke-linejoin="round"/>
<path d="M75.7719 356.046C44.6819 356.046 19.4702 381.279 19.4702 412.352C19.4702 418.778 20.5515 424.938 22.5389 430.687H129.035C131.023 424.938 132.104 418.778 132.104 412.352C132.104 381.279 106.862 356.046 75.7719 356.046Z" fill="url(#paint4_linear_801_71)" stroke="black" stroke-width="0.8" stroke-linecap="round" stroke-linejoin="round"/>
<path d="M126.322 154.984C126.324 157.732 125.783 160.453 124.732 162.992C123.681 165.531 122.14 167.838 120.197 169.781C118.254 171.724 115.947 173.266 113.407 174.318C110.868 175.37 108.146 175.911 105.398 175.911C102.649 175.911 99.927 175.37 97.3877 174.318C94.8483 173.266 92.5411 171.724 90.598 169.781C88.6548 167.838 87.1137 165.531 86.0627 162.992C85.0117 160.453 84.4714 157.732 84.4727 154.984C84.4714 152.237 85.0117 149.516 86.0627 146.977C87.1137 144.438 88.6548 142.131 90.598 140.188C92.5411 138.244 94.8483 136.703 97.3877 135.651C99.927 134.599 102.649 134.058 105.398 134.058C108.146 134.058 110.868 134.599 113.407 135.651C115.947 136.703 118.254 138.244 120.197 140.188C122.14 142.131 123.681 144.438 124.732 146.977C125.783 149.516 126.324 152.237 126.322 154.984V154.984Z" fill="white" stroke="black" stroke-width="0.800004" stroke-linecap="round" stroke-linejoin="round"/>
<path d="M172.664 154.984C172.665 157.732 172.125 160.453 171.074 162.992C170.023 165.531 168.482 167.838 166.539 169.781C164.596 171.724 162.289 173.266 159.749 174.318C157.21 175.37 154.488 175.911 151.739 175.911C148.991 175.911 146.269 175.37 143.729 174.318C141.19 173.266 138.883 171.724 136.94 169.781C134.997 167.838 133.455 165.531 132.404 162.992C131.353 160.453 130.813 157.732 130.814 154.984C130.813 152.237 131.353 149.516 132.404 146.977C133.455 144.438 134.997 142.131 136.94 140.188C138.883 138.244 141.19 136.703 143.729 135.651C146.269 134.599 148.991 134.058 151.739 134.058C154.488 134.058 157.21 134.599 159.749 135.651C162.289 136.703 164.596 138.244 166.539 140.188C168.482 142.131 170.023 144.438 171.074 146.977C172.125 149.516 172.665 152.237 172.664 154.984Z" fill="white" stroke="black" stroke-width="0.800004" stroke-linecap="round" stroke-linejoin="round"/>
<path d="M119.84 157.526C119.841 158.413 119.666 159.292 119.327 160.113C118.988 160.933 118.49 161.679 117.862 162.306C117.235 162.934 116.489 163.433 115.669 163.772C114.849 164.112 113.969 164.287 113.081 164.287C112.193 164.287 111.314 164.112 110.494 163.772C109.673 163.433 108.928 162.934 108.3 162.306C107.673 161.679 107.175 160.933 106.836 160.113C106.496 159.292 106.322 158.413 106.323 157.526C106.322 156.638 106.496 155.759 106.836 154.939C107.175 154.118 107.673 153.373 108.3 152.745C108.928 152.117 109.673 151.619 110.494 151.279C111.314 150.939 112.193 150.764 113.081 150.764C113.969 150.764 114.849 150.939 115.669 151.279C116.489 151.619 117.235 152.117 117.862 152.745C118.49 153.373 118.988 154.118 119.327 154.939C119.666 155.759 119.841 156.638 119.84 157.526V157.526Z" fill="black"/>
<path d="M150.755 157.526C150.756 158.413 150.581 159.292 150.242 160.113C149.903 160.933 149.405 161.679 148.777 162.306C148.15 162.934 147.404 163.433 146.584 163.772C145.764 164.112 144.884 164.287 143.996 164.287C143.108 164.287 142.229 164.112 141.409 163.772C140.588 163.433 139.843 162.934 139.215 162.306C138.588 161.679 138.09 160.933 137.751 160.113C137.411 159.292 137.237 158.413 137.238 157.526C137.237 156.638 137.411 155.759 137.751 154.939C138.09 154.118 138.588 153.373 139.215 152.745C139.843 152.117 140.588 151.619 141.409 151.279C142.229 150.939 143.108 150.764 143.996 150.764C144.884 150.764 145.764 150.939 146.584 151.279C147.404 151.619 148.15 152.117 148.777 152.745C149.405 153.373 149.903 154.118 150.242 154.939C150.581 155.759 150.756 156.638 150.755 157.526Z" fill="black"/>
<path fill-rule="evenodd" clip-rule="evenodd" d="M117.751 195.113C121.163 191.471 135.653 190.68 138.684 195.562C141.714 200.452 134.138 210.582 128.214 210.125C122.32 209.669 114.553 198.513 117.751 195.113Z" fill="black"/>
<path fill-rule="evenodd" clip-rule="evenodd" d="M79.6406 120.86C77.3944 88.3723 43.921 80.9728 42.3067 84.8285C40.7001 88.6917 48.4212 132.123 79.6406 120.86Z" fill="#74401B" stroke="black" stroke-width="0.8" stroke-linejoin="round"/>
<path fill-rule="evenodd" clip-rule="evenodd" d="M175.035 120.86C177.281 88.3723 210.755 80.9728 212.369 84.8285C213.976 88.6917 206.247 132.123 175.035 120.86Z" fill="url(#paint5_linear_801_71)" stroke="black" stroke-width="0.8" stroke-linejoin="round"/>
<path d="M70.7831 414.436C70.7831 419.179 69.1941 423.729 66.3657 427.083C63.5374 430.438 59.7013 432.322 55.7014 432.322C51.7014 432.322 47.8653 430.438 45.037 427.083C42.2086 423.729 40.6196 419.179 40.6196 414.436C40.6196 409.692 42.2086 405.142 45.037 401.788C47.8653 398.434 51.7014 396.549 55.7014 396.549C59.7013 396.549 63.5374 398.434 66.3657 401.788C69.1941 405.142 70.7831 409.692 70.7831 414.436V414.436Z" fill="url(#paint6_linear_801_71)" stroke="black" stroke-width="0.734432" stroke-linecap="round" stroke-linejoin="round"/>
<path d="M108.613 414.436C108.613 419.179 107.024 423.729 104.195 427.083C101.367 430.438 97.5308 432.322 93.5309 432.322C89.531 432.322 85.6949 430.438 82.8665 427.083C80.0382 423.729 78.4492 419.179 78.4492 414.436C78.4492 409.692 80.0382 405.142 82.8665 401.788C85.6949 398.434 89.531 396.549 93.5309 396.549C97.5308 396.549 101.367 398.434 104.195 401.788C107.024 405.142 108.613 409.692 108.613 414.436V414.436Z" fill="url(#paint7_linear_801_71)" stroke="black" stroke-width="0.734432" stroke-linecap="round" stroke-linejoin="round"/>
<path d="M90.718 414.436C90.718 419.179 89.129 423.729 86.3007 427.083C83.4723 430.438 79.6362 432.322 75.6363 432.322C71.6364 432.322 67.8003 430.438 64.972 427.083C62.1436 423.729 60.5547 419.179 60.5547 414.436C60.5547 409.692 62.1436 405.142 64.972 401.788C67.8003 398.434 71.6364 396.549 75.6363 396.549C79.6362 396.549 83.4723 398.434 86.3007 401.788C89.129 405.142 90.718 409.692 90.718 414.436V414.436Z" fill="url(#paint8_linear_801_71)" stroke="black" stroke-width="0.734432" stroke-linecap="round" stroke-linejoin="round"/>
<path d="M186.835 414.436C186.835 419.179 185.246 423.729 182.417 427.083C179.589 430.438 175.753 432.322 171.753 432.322C167.753 432.322 163.917 430.438 161.089 427.083C158.26 423.729 156.671 419.179 156.671 414.436C156.671 409.692 158.26 405.142 161.089 401.788C163.917 398.434 167.753 396.549 171.753 396.549C175.753 396.549 179.589 398.434 182.417 401.788C185.246 405.142 186.835 409.692 186.835 414.436V414.436Z" fill="url(#paint9_linear_801_71)" stroke="black" stroke-width="0.734432" stroke-linecap="round" stroke-linejoin="round"/>
<path d="M224.668 414.436C224.668 419.179 223.079 423.729 220.251 427.083C217.423 430.438 213.586 432.322 209.587 432.322C205.587 432.322 201.751 430.438 198.922 427.083C196.094 423.729 194.505 419.179 194.505 414.436C194.505 409.692 196.094 405.142 198.922 401.788C201.751 398.434 205.587 396.549 209.587 396.549C213.586 396.549 217.423 398.434 220.251 401.788C223.079 405.142 224.668 409.692 224.668 414.436V414.436Z" fill="url(#paint10_linear_801_71)" stroke="black" stroke-width="0.734432" stroke-linecap="round" stroke-linejoin="round"/>
<path d="M206.773 414.436C206.773 419.179 205.184 423.729 202.356 427.083C199.528 430.438 195.691 432.322 191.692 432.322C187.692 432.322 183.856 430.438 181.027 427.083C178.199 423.729 176.61 419.179 176.61 414.436C176.61 409.692 178.199 405.142 181.027 401.788C183.856 398.434 187.692 396.549 191.692 396.549C195.691 396.549 199.528 398.434 202.356 401.788C205.184 405.142 206.773 409.692 206.773 414.436V414.436Z" fill="url(#paint11_linear_801_71)" stroke="black" stroke-width="0.734432" stroke-linecap="round" stroke-linejoin="round"/>
<path d="M187.577 135.332C188.742 140.153 189.366 145.203 189.366 150.374C189.366 185.714 160.652 226.65 125.297 226.65C99.5299 226.65 77.3335 204.893 67.1758 179.409C75.0416 208.832 99.5451 236.423 128.556 236.423C163.911 236.423 192.625 195.456 192.625 160.116C192.625 151.325 190.828 142.96 187.607 135.332H187.577Z" fill="black" fill-opacity="0.31373"/>
<g clip-path="url(#clip1_801_71)">
<path d="M363.736 100.179L357.272 97.865C320.535 86.5812 302.048 64.5631 294.033 51.4269L224.644 171.612C232.226 196.552 262.68 216.263 317.521 233.035C369.396 248.803 408.271 293.229 422.054 311.113L422.586 311.42L497.194 182.194C449.608 127.067 407.47 114.083 363.736 100.179Z" fill="#2FA4DA"/>
<path d="M508.489 177.37C457.651 116.82 411.484 102.219 366.911 88.5395L360.448 86.2258C326.713 75.4139 310.309 55.1934 303.503 44.0528C310.967 43.9947 318.205 40.1897 322.206 33.2604C328.215 22.8532 324.648 9.54103 314.24 3.53243C303.833 -2.47617 290.521 1.09081 284.512 11.498C279.634 19.9482 281.153 30.2488 287.438 37.0609L112.156 340.657L122.792 346.797L216.437 184.6C229.276 209.03 261.94 228.598 313.815 244.367C373.525 262.532 417.12 324.573 417.652 324.88L422.948 332.901L511.066 180.276L508.489 177.37ZM422.586 311.42L422.054 311.113C408.272 293.229 369.397 248.804 317.522 233.035C262.681 216.263 232.226 196.552 224.644 171.612L294.034 51.4269C302.049 64.5631 320.535 86.5812 357.273 97.865L363.737 100.179C407.47 114.083 449.608 127.067 497.195 182.194L422.586 311.42Z" fill="#272727"/>
<path d="M295.424 17.7983C294.21 19.9026 293.88 22.4033 294.509 24.7504C295.138 27.0975 296.674 29.0986 298.778 30.3135C300.882 31.5285 303.383 31.8577 305.73 31.2288C308.077 30.5999 310.078 29.0644 311.293 26.9601C312.508 24.8557 312.837 22.355 312.208 20.0079C311.58 17.6608 310.044 15.6597 307.94 14.4448C305.835 13.2299 303.335 12.9006 300.988 13.5295C298.641 14.1584 296.639 15.6939 295.424 17.7983Z" fill="#2FA4DA"/>
<path d="M275.469 144.395L297.153 120.999L300.683 123.037L300.15 127.183L277.772 150.855L273.903 148.621L275.469 144.395ZM288.632 116.079L278.145 146.109L275.108 149.317L270.71 146.778L281.803 112.136L288.632 116.079ZM290.916 153.285L311.53 129.299L318.338 133.23L293.883 160.157L289.528 157.642L290.916 153.285ZM302.988 124.368L293.567 155.041L290.712 158.326L286.864 156.104L296.082 124.806L299.457 122.329L302.988 124.368ZM312.394 171.408C310.576 170.358 309.115 169.129 308.01 167.721C306.906 166.313 306.147 164.813 305.732 163.22C305.339 161.622 305.269 160.002 305.521 158.362C305.772 156.722 306.337 155.141 307.216 153.618L307.68 152.815C308.665 151.109 309.812 149.676 311.121 148.515C312.43 147.354 313.848 146.509 315.375 145.981C316.924 145.447 318.542 145.282 320.228 145.485C321.923 145.674 323.638 146.269 325.371 147.27C326.992 148.206 328.283 149.308 329.242 150.576C330.209 151.83 330.845 153.203 331.15 154.694C331.462 156.171 331.445 157.731 331.098 159.372C330.774 161.008 330.12 162.679 329.135 164.384L327.573 167.091L309.136 156.446L311.589 152.196L323.556 159.106L323.849 158.598C324.313 157.795 324.572 157.005 324.626 156.228C324.694 155.459 324.54 154.749 324.163 154.1C323.809 153.444 323.209 152.872 322.363 152.384C321.559 151.92 320.792 151.702 320.061 151.731C319.33 151.761 318.624 151.992 317.941 152.425C317.281 152.852 316.645 153.433 316.032 154.169C315.427 154.891 314.856 155.718 314.319 156.648L313.855 157.451C313.343 158.339 312.994 159.219 312.811 160.09C312.627 160.962 312.618 161.792 312.782 162.582C312.946 163.373 313.273 164.107 313.765 164.785C314.257 165.464 314.925 166.047 315.771 166.536C316.814 167.138 317.922 167.514 319.094 167.665C320.274 167.801 321.458 167.639 322.645 167.178L323.694 172.491C322.838 172.899 321.804 173.176 320.592 173.322C319.402 173.462 318.109 173.392 316.711 173.111C315.313 172.83 313.874 172.263 312.394 171.408ZM350.206 149.374L331.456 181.85L324.839 178.029L343.589 145.553L350.206 149.374ZM347.627 184.899C348.331 185.306 349.022 185.526 349.698 185.559C350.374 185.593 350.991 185.451 351.55 185.135C352.131 184.812 352.621 184.306 353.019 183.615L359.236 187.204C358.275 188.867 356.999 190.085 355.407 190.857C353.829 191.637 352.113 191.972 350.26 191.861C348.416 191.735 346.591 191.152 344.787 190.11C343.011 189.085 341.627 187.901 340.636 186.558C339.653 185.201 339.022 183.737 338.745 182.168C338.467 180.598 338.506 178.985 338.86 177.329C339.237 175.667 339.898 174.019 340.842 172.384L341.159 171.834C342.095 170.213 343.188 168.824 344.439 167.666C345.704 166.517 347.085 165.671 348.584 165.126C350.082 164.582 351.654 164.399 353.298 164.578C354.965 164.751 356.686 165.35 358.462 166.375C360.337 167.458 361.786 168.773 362.808 170.322C363.845 171.879 364.382 173.57 364.418 175.396C364.462 177.207 363.939 179.057 362.849 180.945L356.633 177.357C357.056 176.624 357.3 175.891 357.366 175.158C357.454 174.42 357.328 173.727 356.988 173.079C356.67 172.426 356.123 171.875 355.348 171.428C354.544 170.964 353.78 170.757 353.055 170.809C352.353 170.854 351.692 171.103 351.075 171.554C350.457 172.005 349.875 172.59 349.329 173.309C348.79 174.013 348.273 174.795 347.777 175.655L347.459 176.204C346.955 177.078 346.524 177.938 346.167 178.785C345.818 179.617 345.607 180.406 345.533 181.153C345.473 181.908 345.599 182.601 345.911 183.232C346.223 183.863 346.795 184.419 347.627 184.899ZM362.539 184.854L362.795 184.41C363.763 182.733 364.894 181.328 366.187 180.195C367.488 179.048 368.905 178.221 370.438 177.715C371.97 177.209 373.58 177.058 375.267 177.261C376.962 177.451 378.683 178.05 380.431 179.059C382.207 180.084 383.601 181.284 384.612 182.657C385.646 184.024 386.326 185.498 386.654 187.078C386.983 188.658 386.975 190.299 386.633 191.999C386.298 193.685 385.647 195.367 384.678 197.044L384.422 197.488C383.461 199.152 382.331 200.557 381.03 201.704C379.737 202.836 378.32 203.663 376.779 204.183C375.246 204.689 373.637 204.84 371.95 204.637C370.263 204.434 368.539 203.823 366.777 202.806C365.029 201.797 363.638 200.609 362.605 199.241C361.571 197.874 360.89 196.4 360.562 194.82C360.242 193.226 360.25 191.586 360.584 189.899C360.927 188.199 361.578 186.517 362.539 184.854ZM369.413 188.231L369.156 188.675C368.636 189.577 368.218 190.463 367.903 191.334C367.602 192.213 367.45 193.046 367.447 193.833C367.443 194.621 367.619 195.342 367.973 195.998C368.35 196.648 368.94 197.204 369.743 197.668C370.547 198.132 371.317 198.361 372.054 198.354C372.799 198.333 373.511 198.124 374.191 197.727C374.871 197.331 375.51 196.778 376.107 196.07C376.717 195.371 377.283 194.57 377.804 193.667L378.06 193.223C378.573 192.335 378.976 191.459 379.268 190.594C379.583 189.724 379.746 188.887 379.758 188.086C379.769 187.285 379.591 186.552 379.222 185.888C378.868 185.233 378.282 184.669 377.465 184.197C376.675 183.741 375.908 183.524 375.163 183.544C374.418 183.565 373.701 183.781 373.013 184.192C372.325 184.603 371.675 185.158 371.065 185.858C370.476 186.552 369.925 187.343 369.413 188.231ZM397.608 195.939L387.171 214.017L380.575 210.208L393.783 187.331L399.978 190.908L397.608 195.939ZM393.393 201.287L391.699 200.365C392.626 198.758 393.667 197.395 394.821 196.275C395.997 195.15 397.247 194.303 398.572 193.733C399.897 193.164 401.268 192.921 402.685 193.007C404.116 193.1 405.557 193.565 407.009 194.404C408.024 194.99 408.857 195.678 409.51 196.468C410.171 197.244 410.61 198.127 410.828 199.117C411.067 200.102 411.052 201.202 410.783 202.418C410.521 203.62 409.979 204.933 409.157 206.357L400.344 221.622L393.747 217.813L402.096 203.351C402.682 202.336 402.999 201.495 403.046 200.827C403.116 200.153 402.975 199.583 402.624 199.117C402.273 198.651 401.773 198.231 401.125 197.857C400.42 197.45 399.703 197.243 398.974 197.236C398.268 197.222 397.577 197.378 396.901 197.702C396.225 198.026 395.588 198.494 394.99 199.107C394.406 199.729 393.874 200.455 393.393 201.287ZM406.93 208.651L404.739 207.612C405.634 206.061 406.648 204.729 407.779 203.616C408.911 202.503 410.124 201.671 411.418 201.122C412.721 200.558 414.073 200.315 415.476 200.392C416.893 200.477 418.327 200.938 419.779 201.777C420.85 202.395 421.734 203.112 422.428 203.926C423.137 204.749 423.61 205.689 423.845 206.746C424.095 207.811 424.07 209.009 423.772 210.34C423.481 211.657 422.868 213.126 421.932 214.747L413.558 229.251L406.919 225.418L415.293 210.914C415.871 209.913 416.183 209.079 416.231 208.411C416.292 207.751 416.147 207.188 415.796 206.722C415.459 206.264 414.973 205.852 414.339 205.486C413.634 205.079 412.936 204.873 412.243 204.868C411.559 204.849 410.894 204.991 410.249 205.295C409.612 205.585 409.013 206.02 408.453 206.599C407.894 207.178 407.386 207.862 406.93 208.651ZM427.65 237.951C425.832 236.901 424.37 235.672 423.266 234.264C422.162 232.856 421.403 231.356 420.988 229.763C420.595 228.165 420.525 226.545 420.776 224.905C421.028 223.265 421.593 221.684 422.472 220.161L422.936 219.358C423.921 217.652 425.068 216.219 426.377 215.058C427.686 213.897 429.104 213.052 430.631 212.524C432.18 211.99 433.797 211.825 435.484 212.028C437.179 212.217 438.894 212.812 440.627 213.813C442.248 214.749 443.538 215.851 444.498 217.119C445.465 218.373 446.101 219.746 446.405 221.237C446.718 222.714 446.701 224.274 446.354 225.915C446.03 227.551 445.376 229.222 444.391 230.927L442.828 233.634L424.391 222.989L426.845 218.739L438.812 225.649L439.105 225.141C439.569 224.338 439.828 223.547 439.882 222.77C439.95 222.002 439.795 221.292 439.419 220.643C439.064 219.987 438.464 219.415 437.619 218.927C436.815 218.463 436.048 218.245 435.317 218.274C434.586 218.303 433.88 218.535 433.197 218.968C432.537 219.395 431.901 219.976 431.288 220.712C430.683 221.434 430.112 222.261 429.575 223.191L429.111 223.994C428.598 224.882 428.25 225.762 428.067 226.633C427.883 227.505 427.873 228.335 428.037 229.125C428.201 229.916 428.529 230.65 429.021 231.328C429.512 232.007 430.181 232.59 431.027 233.078C432.07 233.681 433.178 234.057 434.35 234.208C435.53 234.344 436.714 234.182 437.901 233.721L438.949 239.034C438.094 239.442 437.06 239.719 435.848 239.865C434.658 240.005 433.364 239.935 431.967 239.654C430.569 239.373 429.13 238.806 427.65 237.951Z" fill="white"/>
</g>
<path d="M192.752 297.952C188.342 302.356 182.362 304.832 176.128 304.835C169.894 304.838 163.916 302.367 159.51 297.966C155.103 293.566 152.63 287.596 152.632 281.369C152.635 275.143 155.114 269.171 159.524 264.766C163.935 260.362 169.914 257.886 176.149 257.883C182.383 257.88 188.361 260.351 192.767 264.752C197.173 269.152 199.647 275.122 199.644 281.349C199.642 287.575 197.162 293.547 192.752 297.952Z" fill="url(#paint12_linear_801_71)" stroke="black" stroke-width="0.799998" stroke-linecap="round" stroke-linejoin="round"/>
<path d="M168.163 285.516C166.995 285.829 165.892 286.341 164.918 287.023C163.944 287.704 163.118 288.541 162.486 289.487C161.854 290.433 161.429 291.469 161.236 292.536C161.043 293.602 161.085 294.678 161.359 295.703C161.634 296.728 162.135 297.681 162.836 298.508C163.536 299.335 164.422 300.019 165.442 300.522C166.462 301.026 167.596 301.338 168.781 301.441C169.965 301.543 171.175 301.435 172.343 301.122C173.511 300.809 174.614 300.297 175.588 299.616C176.562 298.935 177.388 298.097 178.02 297.151C178.652 296.205 179.076 295.17 179.27 294.103C179.463 293.037 179.421 291.96 179.147 290.936C178.872 289.911 178.37 288.958 177.67 288.131C176.969 287.304 176.084 286.619 175.064 286.116C174.044 285.613 172.909 285.301 171.725 285.198C170.541 285.095 169.331 285.203 168.163 285.516V285.516Z" fill="url(#paint13_linear_801_71)" stroke="black" stroke-width="0.734456" stroke-linecap="round" stroke-linejoin="round"/>
<path d="M162.924 265.942C161.756 266.255 160.653 266.766 159.679 267.448C158.705 268.129 157.879 268.967 157.247 269.913C156.615 270.859 156.191 271.894 155.997 272.961C155.804 274.027 155.846 275.104 156.12 276.128C156.395 277.153 156.897 278.106 157.597 278.933C158.298 279.76 159.183 280.445 160.203 280.948C161.223 281.451 162.358 281.763 163.542 281.866C164.726 281.969 165.936 281.861 167.104 281.548C169.463 280.915 171.505 279.487 172.781 277.577C174.057 275.666 174.462 273.43 173.908 271.361C173.354 269.291 171.885 267.558 169.825 266.541C167.765 265.525 165.283 265.309 162.924 265.942V265.942Z" fill="url(#paint14_linear_801_71)" stroke="black" stroke-width="0.734456" stroke-linecap="round" stroke-linejoin="round"/>
<path d="M160.701 277.007C158.342 277.639 156.301 279.067 155.025 280.978C153.749 282.888 153.343 285.124 153.898 287.193C154.452 289.263 155.921 290.996 157.981 292.013C160.041 293.029 162.523 293.245 164.882 292.613C167.241 291.98 169.283 290.552 170.559 288.642C171.834 286.731 172.24 284.495 171.685 282.426C171.411 281.401 170.909 280.448 170.209 279.621C169.508 278.794 168.622 278.11 167.602 277.606C165.543 276.59 163.06 276.374 160.701 277.007V277.007Z" fill="url(#paint15_linear_801_71)" stroke="black" stroke-width="0.734456" stroke-linecap="round" stroke-linejoin="round"/>
<path d="M108.261 269.627C109.805 272.298 110.808 275.246 111.212 278.304C111.616 281.361 111.413 284.467 110.616 287.446C109.818 290.424 108.441 293.216 106.563 295.661C104.685 298.107 102.344 300.159 99.6714 301.7C96.9993 303.24 94.0492 304.24 90.9896 304.641C87.93 305.043 84.8207 304.838 81.8394 304.039C78.858 303.239 76.063 301.861 73.6138 299.983C71.1647 298.105 69.1093 295.764 67.5652 293.093C66.0211 290.422 65.0184 287.473 64.6144 284.416C64.2103 281.358 64.4129 278.252 65.2105 275.274C66.0081 272.295 67.3851 269.504 69.263 267.058C71.1408 264.612 73.4826 262.561 76.1547 261.02C78.8268 259.479 81.7769 258.479 84.8365 258.078C87.8962 257.677 91.0054 257.882 93.9868 258.681C96.9681 259.48 99.7631 260.858 102.212 262.736C104.661 264.614 106.717 266.956 108.261 269.627Z" fill="url(#paint16_linear_801_71)" stroke="black" stroke-width="0.800002" stroke-linecap="round" stroke-linejoin="round"/>
<path d="M95.3105 286.987C96.3576 287.591 97.2898 288.371 98.0541 289.281C98.8183 290.191 99.3996 291.213 99.7647 292.29C100.13 293.367 100.272 294.478 100.182 295.558C100.092 296.638 99.7731 297.667 99.2425 298.585C98.7118 299.504 97.98 300.295 97.089 300.913C96.198 301.53 95.1653 301.963 94.0496 302.185C92.934 302.408 91.7574 302.416 90.5869 302.209C89.4165 302.002 88.2752 301.585 87.2282 300.981C86.1811 300.376 85.2488 299.597 84.4846 298.687C83.7203 297.777 83.1391 296.755 82.774 295.678C82.4088 294.601 82.267 293.49 82.3567 292.41C82.4463 291.33 82.7655 290.301 83.2962 289.382C83.8269 288.464 84.5587 287.673 85.4496 287.055C86.3406 286.438 87.3734 286.005 88.489 285.783C89.6047 285.56 90.7813 285.552 91.9517 285.759C93.1222 285.966 94.2635 286.383 95.3105 286.987V286.987Z" fill="url(#paint17_linear_801_71)" stroke="black" stroke-width="0.734456" stroke-linecap="round" stroke-linejoin="round"/>
<path d="M105.445 269.435C107.56 270.656 109.162 272.563 109.9 274.738C110.637 276.913 110.449 279.178 109.377 281.034C108.305 282.889 106.438 284.184 104.184 284.633C101.931 285.082 99.4775 284.649 97.3629 283.429C95.2483 282.208 93.6461 280.301 92.9087 278.126C92.1713 275.951 92.3592 273.686 93.431 271.831C94.5028 269.975 96.3707 268.68 98.6238 268.231C100.877 267.782 103.331 268.215 105.445 269.435V269.435Z" fill="url(#paint18_linear_801_71)" stroke="black" stroke-width="0.734456" stroke-linecap="round" stroke-linejoin="round"/>
<path d="M104.73 280.698C106.844 281.918 108.446 283.826 109.184 286.001C109.921 288.176 109.733 290.441 108.661 292.296C107.59 294.152 105.722 295.447 103.469 295.896C101.215 296.345 98.7617 295.912 96.6471 294.692C94.5325 293.471 92.9303 291.564 92.1929 289.388C91.4555 287.213 91.6434 284.949 92.7152 283.093C93.787 281.238 95.6549 279.943 97.908 279.494C100.161 279.044 102.615 279.478 104.73 280.698V280.698Z" fill="url(#paint19_linear_801_71)" stroke="black" stroke-width="0.734456" stroke-linecap="round" stroke-linejoin="round"/>
</g>
<defs>
<linearGradient id="paint0_linear_801_71" x1="49.3575" y1="195.117" x2="324.523" y2="195.117" gradientUnits="userSpaceOnUse">
<stop stop-color="#D07839"/>
</linearGradient>
<linearGradient id="paint1_linear_801_71" x1="2.47783" y1="302.618" x2="253.984" y2="302.618" gradientUnits="userSpaceOnUse">
<stop stop-color="#D07839"/>
</linearGradient>
<linearGradient id="paint2_linear_801_71" x1="18.6776" y1="155.709" x2="236.44" y2="155.709" gradientUnits="userSpaceOnUse">
<stop stop-color="#D07839"/>
</linearGradient>
<linearGradient id="paint3_linear_801_71" x1="89.4375" y1="-393.442" x2="132.394" y2="-381.9" gradientUnits="userSpaceOnUse">
<stop stop-color="#D07839"/>
</linearGradient>
<linearGradient id="paint4_linear_801_71" x1="46.4633" y1="-404.924" x2="89.42" y2="-393.382" gradientUnits="userSpaceOnUse">
<stop stop-color="#D07839"/>
</linearGradient>
<linearGradient id="paint5_linear_801_71" x1="-310.254" y1="371.045" x2="-308.68" y2="376.205" gradientUnits="userSpaceOnUse">
<stop stop-color="#74401B"/>
</linearGradient>
<linearGradient id="paint6_linear_801_71" x1="-174.333" y1="309.386" x2="-173.068" y2="313.532" gradientUnits="userSpaceOnUse">
<stop stop-color="#74401B"/>
</linearGradient>
<linearGradient id="paint7_linear_801_71" x1="-173.089" y1="314.691" x2="-171.824" y2="318.838" gradientUnits="userSpaceOnUse">
<stop stop-color="#74401B"/>
</linearGradient>
<linearGradient id="paint8_linear_801_71" x1="-173.677" y1="312.181" x2="-172.412" y2="316.328" gradientUnits="userSpaceOnUse">
<stop stop-color="#74401B"/>
</linearGradient>
<linearGradient id="paint9_linear_801_71" x1="-170.52" y1="325.662" x2="-169.255" y2="329.808" gradientUnits="userSpaceOnUse">
<stop stop-color="#74401B"/>
</linearGradient>
<linearGradient id="paint10_linear_801_71" x1="-169.278" y1="330.968" x2="-168.013" y2="335.114" gradientUnits="userSpaceOnUse">
<stop stop-color="#74401B"/>
</linearGradient>
<linearGradient id="paint11_linear_801_71" x1="-169.867" y1="328.458" x2="-168.602" y2="332.605" gradientUnits="userSpaceOnUse">
<stop stop-color="#74401B"/>
</linearGradient>
<linearGradient id="paint12_linear_801_71" x1="107.343" y1="-428.844" x2="125.272" y2="-424.027" gradientUnits="userSpaceOnUse">
<stop stop-color="#D07839"/>
</linearGradient>
<linearGradient id="paint13_linear_801_71" x1="-220.374" y1="341.536" x2="-219.608" y2="344.048" gradientUnits="userSpaceOnUse">
<stop stop-color="#74401B"/>
</linearGradient>
<linearGradient id="paint14_linear_801_71" x1="-229.332" y1="343.482" x2="-228.565" y2="345.994" gradientUnits="userSpaceOnUse">
<stop stop-color="#74401B"/>
</linearGradient>
<linearGradient id="paint15_linear_801_71" x1="-224.438" y1="341.655" x2="-223.671" y2="344.167" gradientUnits="userSpaceOnUse">
<stop stop-color="#74401B"/>
</linearGradient>
<linearGradient id="paint16_linear_801_71" x1="73.6852" y1="-437.84" x2="91.611" y2="-433.023" gradientUnits="userSpaceOnUse">
<stop stop-color="#D07839"/>
</linearGradient>
<linearGradient id="paint17_linear_801_71" x1="-222.758" y1="330.425" x2="-222.008" y2="332.883" gradientUnits="userSpaceOnUse">
<stop stop-color="#74401B"/>
</linearGradient>
<linearGradient id="paint18_linear_801_71" x1="-230.304" y1="334.25" x2="-229.554" y2="336.708" gradientUnits="userSpaceOnUse">
<stop stop-color="#74401B"/>
</linearGradient>
<linearGradient id="paint19_linear_801_71" x1="-225.272" y1="332.607" x2="-224.523" y2="335.065" gradientUnits="userSpaceOnUse">
<stop stop-color="#74401B"/>
</linearGradient>
<clipPath id="clip0_801_71">
<rect width="520" height="439" fill="white"/>
</clipPath>
<clipPath id="clip1_801_71">
<rect width="393" height="393" fill="white" transform="translate(247.5 -35) rotate(30)"/>
</clipPath>
</defs>
</svg>
